<svg width="24" height="32" viewBox="0 0 24 32" fill="none" xmlns="http://www.w3.org/2000/svg">
<path fill-rule="evenodd" clip-rule="evenodd" d="M22 11.7846C22 12.9413 21.105 13.8782 20 13.8782C18.895 13.8782 18 12.9413 18 11.7846C18 10.6279 18.895 9.69098 20 9.69098C21.105 9.69098 22 10.6279 22 11.7846ZM22 14.9251H21.026H18.974H18C16.895 14.9251 16 15.862 16 17.0187V23.2996H18V26.44V28.5337C18 29.1115 18.448 29.5805 19 29.5805H21C21.552 29.5805 22 29.1115 22 28.5337V26.44V23.2996H24V17.0187C24 15.862 23.105 14.9251 22 14.9251Z" fill="#475569"/>
<path fill-rule="evenodd" clip-rule="evenodd" d="M6 11.7846C6 12.9413 5.105 13.8782 4 13.8782C2.895 13.8782 2 12.9413 2 11.7846C2 10.6279 2.895 9.69098 4 9.69098C5.105 9.69098 6 10.6279 6 11.7846ZM6 14.9251H5.026H2.974H2C0.895 14.9251 0 15.862 0 17.0187V23.2996H2V26.44V28.5337C2 29.1115 2.448 29.5805 3 29.5805H5C5.552 29.5805 6 29.1115 6 28.5337V26.44V23.2996H8V17.0187C8 15.862 7.105 14.9251 6 14.9251Z" fill="#475569"/>
<path fill-rule="evenodd" clip-rule="evenodd" d="M9 9.69099C9 11.4256 10.343 12.8314 12 12.8314C13.657 12.8314 15 11.4256 15 9.69099C15 7.95641 13.657 6.55054 12 6.55054C10.343 6.55054 9 7.95641 9 9.69099ZM9 30.6273C9 31.2052 9.448 31.6741 10 31.6741H14C14.552 31.6741 15 31.2052 15 30.6273V24.3464H18V18.0655C18 16.3309 16.657 14.9251 15 14.9251H9C7.343 14.9251 6 16.3309 6 18.0655V24.3464H9V30.6273Z" fill="#94A3B8"/>
</svg>
