<svg width="24" height="34" viewBox="0 0 24 34" fill="none" xmlns="http://www.w3.org/2000/svg">
<path d="M13 14.5994C15.5184 15.0443 17.5065 17.1266 17.9324 19.7632H24C23.5138 13.6434 18.8456 8.7562 13 8.24823V14.5994Z" fill="#94A3B8"/>
<path d="M18.0074 21.8558C17.5331 24.8214 15.0881 27.0899 12.1429 27.0899C10.7467 27.0899 9.46465 26.5769 8.44852 25.7248L4 29.9487C6.13148 32.0644 8.99231 33.3708 12.1429 33.3708C18.3746 33.3708 23.4929 28.2927 24 21.8558H18.0074Z" fill="#334155"/>
<path d="M6.939 23.9565C6.348 22.9928 6 21.854 6 20.6302C6 17.5557 8.167 15.0024 11 14.5061V8.24719C4.85 8.77775 0 14.1237 0 20.6302C0 23.4519 0.922 26.0477 2.456 28.1367L6.939 23.9565Z" fill="#475569"/>
</svg>
