<svg width="28" height="28" viewBox="0 0 28 28" fill="none" xmlns="http://www.w3.org/2000/svg">
<path d="M9.04199 4.08333V2.33333C9.04199 1.85499 8.64533 1.45833 8.16699 1.45833C7.68866 1.45833 7.29199 1.85499 7.29199 2.33333V4.15333C7.58366 4.11833 7.85199 4.08333 8.16699 4.08333H9.04199Z" fill="#475569"/>
<path d="M18.375 4.15333V2.33333C18.375 1.85499 17.9783 1.45833 17.5 1.45833C17.0217 1.45833 16.625 1.85499 16.625 2.33333V4.08333H17.5C17.815 4.08333 18.0833 4.11833 18.375 4.15333Z" fill="#475569"/>
<path d="M24.838 17.465C23.9397 16.7533 22.808 16.3333 21.583 16.3333C20.358 16.3333 19.203 16.765 18.3047 17.4883C17.0913 18.445 16.333 19.9383 16.333 21.5833C16.333 22.5633 16.613 23.5083 17.0913 24.2783C17.4647 24.885 17.943 25.4217 18.5147 25.83C19.378 26.46 20.428 26.8333 21.583 26.8333C22.913 26.8333 24.1147 26.3433 25.0363 25.5267C25.4447 25.1883 25.7947 24.7683 26.0747 24.29C26.553 23.5083 26.833 22.5633 26.833 21.5833C26.833 19.915 26.0513 18.4217 24.838 17.465ZM21.583 24.08C21.583 22.7033 20.463 21.5833 19.0863 21.5833C20.463 21.5833 21.583 20.4633 21.583 19.0867C21.583 20.4633 22.703 21.5833 24.0797 21.5833C22.703 21.5833 21.583 22.7033 21.583 24.08Z" fill="#B0B0B0"/>
<path d="M18.3747 4.15333V5.83333C18.3747 6.31166 17.978 6.70833 17.4997 6.70833C17.0213 6.70833 16.6247 6.31166 16.6247 5.83333V4.08333H9.04134V5.83333C9.04134 6.31166 8.64467 6.70833 8.16634 6.70833C7.68801 6.70833 7.29134 6.31166 7.29134 5.83333V4.15333C3.84967 4.46833 2.33301 6.685 2.33301 9.91666V19.8333C2.33301 23.3333 4.08301 25.6667 8.16634 25.6667H12.9847C13.8713 25.6667 14.4663 24.675 14.2447 23.8117C14.0813 23.1817 13.9997 22.5283 13.9997 21.875C13.9997 19.4483 15.0847 17.2083 16.963 15.7267C18.328 14.6183 20.078 14 21.8747 14H21.9213C22.6563 14 23.333 13.4633 23.333 12.7283V9.91666C23.333 6.685 21.8163 4.46833 18.3747 4.15333ZM10.4997 19.5417H8.16634C7.68801 19.5417 7.29134 19.145 7.29134 18.6667C7.29134 18.1883 7.68801 17.7917 8.16634 17.7917H10.4997C10.978 17.7917 11.3747 18.1883 11.3747 18.6667C11.3747 19.145 10.978 19.5417 10.4997 19.5417ZM13.9997 13.7083H8.16634C7.68801 13.7083 7.29134 13.3117 7.29134 12.8333C7.29134 12.355 7.68801 11.9583 8.16634 11.9583H13.9997C14.478 11.9583 14.8747 12.355 14.8747 12.8333C14.8747 13.3117 14.478 13.7083 13.9997 13.7083Z" fill="#475569"/>
</svg>
