<svg width="24" height="26" viewBox="0 0 24 26" fill="none" xmlns="http://www.w3.org/2000/svg">
<path fill-rule="evenodd" clip-rule="evenodd" d="M22 6.02057C22 7.17731 21.105 8.11421 20 8.11421C18.895 8.11421 18 7.17731 18 6.02057C18 4.86384 18.895 3.92694 20 3.92694C21.105 3.92694 22 4.86384 22 6.02057ZM22 9.16102H21.026H18.974H18C16.895 9.16102 16 10.0979 16 11.2547V17.5356H18V20.676V22.7696C18 23.3475 18.448 23.8165 19 23.8165H21C21.552 23.8165 22 23.3475 22 22.7696V20.676V17.5356H24V11.2547C24 10.0979 23.105 9.16102 22 9.16102Z" fill="#475569"/>
<path fill-rule="evenodd" clip-rule="evenodd" d="M6 6.02057C6 7.17731 5.105 8.11421 4 8.11421C2.895 8.11421 2 7.17731 2 6.02057C2 4.86384 2.895 3.92694 4 3.92694C5.105 3.92694 6 4.86384 6 6.02057ZM6 9.16102H5.026H2.974H2C0.895 9.16102 0 10.0979 0 11.2547V17.5356H2V20.676V22.7696C2 23.3475 2.448 23.8165 3 23.8165H5C5.552 23.8165 6 23.3475 6 22.7696V20.676V17.5356H8V11.2547C8 10.0979 7.105 9.16102 6 9.16102Z" fill="#475569"/>
<path fill-rule="evenodd" clip-rule="evenodd" d="M9 3.92695C9 5.66152 10.343 7.0674 12 7.0674C13.657 7.0674 15 5.66152 15 3.92695C15 2.19237 13.657 0.786499 12 0.786499C10.343 0.786499 9 2.19237 9 3.92695ZM9 24.8633C9 25.4411 9.448 25.9101 10 25.9101H14C14.552 25.9101 15 25.4411 15 24.8633V18.5824H18V12.3015C18 10.5669 16.657 9.16103 15 9.16103H9C7.343 9.16103 6 10.5669 6 12.3015V18.5824H9V24.8633Z" fill="#94A3B8"/>
</svg>
