<svg width="24" height="34" viewBox="0 0 24 34" fill="none" xmlns="http://www.w3.org/2000/svg">
<path d="M13 14.3447C15.5184 14.7896 17.5065 16.8719 17.9324 19.5085H24C23.5138 13.3887 18.8456 8.5015 13 7.99353V14.3447Z" fill="#94A3B8"/>
<path d="M18.0074 21.6011C17.5331 24.5667 15.0881 26.8352 12.1429 26.8352C10.7467 26.8352 9.46465 26.3222 8.44852 25.4701L4 29.694C6.13148 31.8097 8.99231 33.1161 12.1429 33.1161C18.3746 33.1161 23.4929 28.038 24 21.6011H18.0074Z" fill="#334155"/>
<path d="M6.939 23.7018C6.348 22.7381 6 21.5993 6 20.3755C6 17.301 8.167 14.7477 11 14.2514V7.99249C4.85 8.52304 0 13.869 0 20.3755C0 23.1972 0.922 25.7929 2.456 27.882L6.939 23.7018Z" fill="#475569"/>
</svg>
