<svg width="24" height="26" viewBox="0 0 24 26" fill="none" xmlns="http://www.w3.org/2000/svg">
<path d="M12 0C5.383 0 0 5.63501 0 12.5618C0 19.4886 5.383 25.1236 12 25.1236C18.617 25.1236 24 19.4886 24 12.5618C24 5.63501 18.617 0 12 0Z" fill="#B0B0B0"/>
<path d="M12 3.14044C7.03725 3.14044 3 7.3667 3 12.5618C3 17.7569 7.03725 21.9831 12 21.9831C16.9627 21.9831 21 17.7569 21 12.5618C21 7.3667 16.9627 3.14044 12 3.14044Z" fill="#475569"/>
<path d="M12 15.7022C10.346 15.7022 9 14.2932 9 12.5618C9 12.0782 9.113 11.6259 9.3 11.2166L6 6.28088L10.714 9.73642C11.106 9.54067 11.538 9.42133 12 9.42133C13.654 9.42133 15 10.8303 15 12.5618C15 14.2932 13.654 15.7022 12 15.7022Z" fill="#B9B9B9"/>
</svg>
