<svg width="28" height="29" viewBox="0 0 28 29" fill="none" xmlns="http://www.w3.org/2000/svg">
<path d="M24.6519 9.53894C25.0279 10.1202 24.5519 10.8104 23.8596 10.8104H3.33301C2.78072 10.8104 2.33301 10.3627 2.33301 9.81041V7.50875C2.33301 4.66208 4.64301 2.35208 7.48967 2.35208H10.1963C12.098 2.35208 12.693 2.97041 13.4513 3.98541L15.0847 6.15541C15.4463 6.63375 15.493 6.69208 16.1697 6.69208H19.4247C21.6148 6.69208 23.543 7.8247 24.6519 9.53894Z" fill="#94A3B8"/>
<path d="M24.6464 12.5601C25.1973 12.5601 25.6445 13.0057 25.6464 13.5567L25.6663 19.4437C25.6663 22.8854 22.8663 25.6854 19.4247 25.6854H8.57467C5.13301 25.6854 2.33301 22.8854 2.33301 19.4437V13.5604C2.33301 13.0081 2.78071 12.5604 3.33299 12.5604L24.6464 12.5601Z" fill="#334155"/>
</svg>
