<svg width="28" height="29" viewBox="0 0 28 29" fill="none" xmlns="http://www.w3.org/2000/svg">
<path d="M24.6522 9.53894C25.0282 10.1202 24.5522 10.8104 23.8599 10.8104H3.33331C2.78103 10.8104 2.33331 10.3627 2.33331 9.81041V7.50875C2.33331 4.66208 4.64331 2.35208 7.48998 2.35208H10.1966C12.0983 2.35208 12.6933 2.97041 13.4516 3.98541L15.085 6.15541C15.4466 6.63375 15.4933 6.69208 16.17 6.69208H19.425C21.6151 6.69208 23.5433 7.8247 24.6522 9.53894Z" fill="#94A3B8"/>
<path d="M24.6467 12.5601C25.1977 12.5601 25.6448 13.0057 25.6467 13.5567L25.6666 19.4437C25.6666 22.8854 22.8666 25.6854 19.425 25.6854H8.57498C5.13331 25.6854 2.33331 22.8854 2.33331 19.4437V13.5604C2.33331 13.0081 2.78102 12.5604 3.3333 12.5604L24.6467 12.5601Z" fill="#334155"/>
</svg>
