<svg width="24" height="32" viewBox="0 0 24 32" fill="none" xmlns="http://www.w3.org/2000/svg">
<path fill-rule="evenodd" clip-rule="evenodd" d="M22 12.0206C22 13.1773 21.105 14.1142 20 14.1142C18.895 14.1142 18 13.1773 18 12.0206C18 10.8638 18.895 9.92694 20 9.92694C21.105 9.92694 22 10.8638 22 12.0206ZM22 15.161H21.026H18.974H18C16.895 15.161 16 16.0979 16 17.2547V23.5356H18V26.676V28.7696C18 29.3475 18.448 29.8165 19 29.8165H21C21.552 29.8165 22 29.3475 22 28.7696V26.676V23.5356H24V17.2547C24 16.0979 23.105 15.161 22 15.161Z" fill="#F0F0F0"/>
<path fill-rule="evenodd" clip-rule="evenodd" d="M6 12.0206C6 13.1773 5.105 14.1142 4 14.1142C2.895 14.1142 2 13.1773 2 12.0206C2 10.8638 2.895 9.92694 4 9.92694C5.105 9.92694 6 10.8638 6 12.0206ZM6 15.161H5.026H2.974H2C0.895 15.161 0 16.0979 0 17.2547V23.5356H2V26.676V28.7696C2 29.3475 2.448 29.8165 3 29.8165H5C5.552 29.8165 6 29.3475 6 28.7696V26.676V23.5356H8V17.2547C8 16.0979 7.105 15.161 6 15.161Z" fill="#F0F0F0"/>
<path fill-rule="evenodd" clip-rule="evenodd" d="M9 9.92695C9 11.6615 10.343 13.0674 12 13.0674C13.657 13.0674 15 11.6615 15 9.92695C15 8.19237 13.657 6.7865 12 6.7865C10.343 6.7865 9 8.19237 9 9.92695ZM9 30.8633C9 31.4411 9.448 31.9101 10 31.9101H14C14.552 31.9101 15 31.4411 15 30.8633V24.5824H18V18.3015C18 16.5669 16.657 15.161 15 15.161H9C7.343 15.161 6 16.5669 6 18.3015V24.5824H9V30.8633Z" fill="#FF520D"/>
</svg>
