<svg width="28" height="29" viewBox="0 0 28 29" fill="none" xmlns="http://www.w3.org/2000/svg">
<path d="M9.04199 4.3193V2.5693C9.04199 2.09096 8.64533 1.6943 8.16699 1.6943C7.68866 1.6943 7.29199 2.09096 7.29199 2.5693V4.3893C7.58366 4.3543 7.85199 4.3193 8.16699 4.3193H9.04199Z" fill="#FF520D"/>
<path d="M18.375 4.3893V2.5693C18.375 2.09096 17.9783 1.6943 17.5 1.6943C17.0217 1.6943 16.625 2.09096 16.625 2.5693V4.3193H17.5C17.815 4.3193 18.0833 4.3543 18.375 4.3893Z" fill="#FF520D"/>
<path d="M24.838 17.701C23.9397 16.9893 22.808 16.5693 21.583 16.5693C20.358 16.5693 19.203 17.001 18.3047 17.7243C17.0913 18.681 16.333 20.1743 16.333 21.8193C16.333 22.7993 16.613 23.7443 17.0913 24.5143C17.4647 25.121 17.943 25.6576 18.5147 26.066C19.378 26.696 20.428 27.0693 21.583 27.0693C22.913 27.0693 24.1147 26.5793 25.0363 25.7626C25.4447 25.4243 25.7947 25.0043 26.0747 24.526C26.553 23.7443 26.833 22.7993 26.833 21.8193C26.833 20.151 26.0513 18.6576 24.838 17.701ZM21.583 24.316C21.583 22.9393 20.463 21.8193 19.0863 21.8193C20.463 21.8193 21.583 20.6993 21.583 19.3226C21.583 20.6993 22.703 21.8193 24.0797 21.8193C22.703 21.8193 21.583 22.9393 21.583 24.316Z" fill="#F0F0F0"/>
<path d="M18.3747 4.3893V6.0693C18.3747 6.54763 17.978 6.9443 17.4997 6.9443C17.0213 6.9443 16.6247 6.54763 16.6247 6.0693V4.3193H9.04134V6.0693C9.04134 6.54763 8.64467 6.9443 8.16634 6.9443C7.68801 6.9443 7.29134 6.54763 7.29134 6.0693V4.3893C3.84967 4.7043 2.33301 6.92096 2.33301 10.1526V20.0693C2.33301 23.5693 4.08301 25.9026 8.16634 25.9026H12.9847C13.8713 25.9026 14.4663 24.911 14.2447 24.0476C14.0813 23.4176 13.9997 22.7643 13.9997 22.111C13.9997 19.6843 15.0847 17.4443 16.963 15.9626C18.328 14.8543 20.078 14.236 21.8747 14.236H21.9213C22.6563 14.236 23.333 13.6993 23.333 12.9643V10.1526C23.333 6.92096 21.8163 4.7043 18.3747 4.3893ZM10.4997 19.7776H8.16634C7.68801 19.7776 7.29134 19.381 7.29134 18.9026C7.29134 18.4243 7.68801 18.0276 8.16634 18.0276H10.4997C10.978 18.0276 11.3747 18.4243 11.3747 18.9026C11.3747 19.381 10.978 19.7776 10.4997 19.7776ZM13.9997 13.9443H8.16634C7.68801 13.9443 7.29134 13.5476 7.29134 13.0693C7.29134 12.591 7.68801 12.1943 8.16634 12.1943H13.9997C14.478 12.1943 14.8747 12.591 14.8747 13.0693C14.8747 13.5476 14.478 13.9443 13.9997 13.9443Z" fill="#FF520D"/>
</svg>
