<svg width="24" height="26" viewBox="0 0 24 26" fill="none" xmlns="http://www.w3.org/2000/svg">
<path d="M13 6.34469C15.5184 6.78956 17.5065 8.87191 17.9324 11.5085H24C23.5138 5.38871 18.8456 0.50149 13 -0.00647736V6.34469Z" fill="#FF520D"/>
<path d="M18.0074 13.6011C17.5331 16.5667 15.0881 18.8352 12.1429 18.8352C10.7467 18.8352 9.46465 18.3222 8.44852 17.4701L4 21.694C6.13148 23.8096 8.99231 25.1161 12.1429 25.1161C18.3746 25.1161 23.4929 20.038 24 13.6011H18.0074Z" fill="#FF520D"/>
<path d="M6.939 15.7018C6.348 14.7381 6 13.5993 6 12.3755C6 9.30099 8.167 6.7477 11 6.25134V-0.00752258C4.85 0.52303 0 5.86897 0 12.3755C0 15.1972 0.922 17.7929 2.456 19.882L6.939 15.7018Z" fill="#FF520D"/>
</svg>
