<svg width="24" height="26" viewBox="0 0 24 26" fill="none" xmlns="http://www.w3.org/2000/svg">
<path d="M13 6.5994C15.5184 7.04427 17.5065 9.12662 17.9324 11.7632H24C23.5138 5.64341 18.8456 0.756197 13 0.24823V6.5994Z" fill="#FF520D"/>
<path d="M18.0074 13.8558C17.5331 16.8214 15.0881 19.0899 12.1429 19.0899C10.7467 19.0899 9.46465 18.5769 8.44852 17.7248L4 21.9487C6.13148 24.0644 8.99231 25.3708 12.1429 25.3708C18.3746 25.3708 23.4929 20.2927 24 13.8558H18.0074Z" fill="#FF520D"/>
<path d="M6.939 15.9565C6.348 14.9928 6 13.854 6 12.6302C6 9.5557 8.167 7.00241 11 6.50606V0.247192C4.85 0.777745 0 6.12369 0 12.6302C0 15.4519 0.922 18.0477 2.456 20.1367L6.939 15.9565Z" fill="#FF520D"/>
</svg>
