<svg width="348" height="116" viewBox="0 0 348 116" fill="none" xmlns="http://www.w3.org/2000/svg">
<path fill-rule="evenodd" clip-rule="evenodd" d="M111.524 69.6287C124.708 69.7587 132.086 84.8844 124.071 95.3536L79.4005 153.707C70.8239 164.91 52.9986 160.335 50.8776 146.386L47.2047 122.231C46.7153 119.013 45.2556 116.02 43.0205 113.653L26.2475 95.8872C16.5613 85.6279 23.9306 68.7648 38.0393 68.9039L111.524 69.6287Z" fill="#0F172A"/>
<mask id="mask0_130_1079" style="mask-type:luminance" maskUnits="userSpaceOnUse" x="21" y="68" width="107" height="92">
<path fill-rule="evenodd" clip-rule="evenodd" d="M111.524 69.6287C124.708 69.7587 132.086 84.8844 124.071 95.3536L79.4005 153.707C70.8239 164.91 52.9986 160.335 50.8776 146.386L47.2047 122.231C46.7153 119.013 45.2556 116.02 43.0205 113.653L26.2475 95.8872C16.5613 85.6279 23.9306 68.7648 38.0393 68.9039L111.524 69.6287Z" fill="white"/>
</mask>
<g mask="url(#mask0_130_1079)">
<rect x="165.094" y="59.4233" width="80" height="152" rx="16" transform="rotate(64 165.094 59.4233)" fill="url(#paint0_linear_130_1079)"/>
</g>
<path fill-rule="evenodd" clip-rule="evenodd" d="M154.151 15.961C148.697 3.95723 159.288 -9.12131 172.163 -6.28223L192.135 -1.87838C205.683 1.10904 209.014 18.8955 197.464 26.5823C194.799 28.356 192.739 30.9005 191.558 33.8761C186.44 46.7713 168.35 47.2117 162.611 34.5807L154.151 15.961Z" fill="#0F172A"/>
<mask id="mask1_130_1079" style="mask-type:luminance" maskUnits="userSpaceOnUse" x="152" y="-7" width="53" height="51">
<path fill-rule="evenodd" clip-rule="evenodd" d="M154.151 15.961C148.697 3.95723 159.288 -9.12131 172.163 -6.28223L192.135 -1.87838C205.683 1.10904 209.014 18.8955 197.464 26.5823C194.799 28.356 192.739 30.9005 191.558 33.8761C186.44 46.7713 168.35 47.2117 162.611 34.5807L154.151 15.961Z" fill="white"/>
</mask>
<g mask="url(#mask1_130_1079)">
<rect x="129.353" y="-22.9641" width="50" height="95" rx="16" transform="rotate(-51 129.353 -22.9641)" fill="url(#paint1_linear_130_1079)"/>
</g>
<path fill-rule="evenodd" clip-rule="evenodd" d="M288.61 91.874C301.043 87.4869 313.149 99.1773 309.198 111.756L303.071 131.268C298.914 144.504 280.905 146.272 274.254 134.097C272.719 131.287 270.364 129.013 267.503 127.577C255.102 121.355 256.24 103.295 269.323 98.6789L288.61 91.874Z" fill="#0F172A"/>
<mask id="mask2_130_1079" style="mask-type:luminance" maskUnits="userSpaceOnUse" x="258" y="90" width="52" height="53">
<path fill-rule="evenodd" clip-rule="evenodd" d="M288.61 91.874C301.043 87.4869 313.149 99.1773 309.198 111.756L303.071 131.268C298.914 144.504 280.905 146.272 274.254 134.097C272.719 131.287 270.364 129.013 267.503 127.577C255.102 121.355 256.24 103.295 269.323 98.6789L288.61 91.874Z" fill="white"/>
</mask>
<g mask="url(#mask2_130_1079)">
<rect x="329.548" y="70.5622" width="50" height="95" rx="16" transform="rotate(44 329.548 70.5622)" fill="url(#paint2_linear_130_1079)"/>
</g>
<defs>
<linearGradient id="paint0_linear_130_1079" x1="174.909" y1="96.7202" x2="174.909" y2="211.423" gradientUnits="userSpaceOnUse">
<stop stop-color="#FF520D"/>
<stop offset="1" stop-color="white" stop-opacity="0.01"/>
</linearGradient>
<linearGradient id="paint1_linear_130_1079" x1="135.487" y1="0.346465" x2="135.487" y2="72.0359" gradientUnits="userSpaceOnUse">
<stop stop-color="#FF520D"/>
<stop offset="1" stop-color="white" stop-opacity="0.01"/>
</linearGradient>
<linearGradient id="paint2_linear_130_1079" x1="335.682" y1="93.8727" x2="335.682" y2="165.562" gradientUnits="userSpaceOnUse">
<stop stop-color="#FF520D"/>
<stop offset="1" stop-color="white" stop-opacity="0.01"/>
</linearGradient>
</defs>
</svg>
