<svg width="79" height="59" viewBox="0 0 79 59" fill="none" xmlns="http://www.w3.org/2000/svg">
<path d="M36.2 29.65C36.2 26.95 35.87 24.61 35.21 22.63C34.61 20.59 33.8 18.91 32.78 17.59C31.76 16.21 30.56 15.19 29.18 14.53C27.8 13.81 26.39 13.45 24.95 13.45C23.51 13.45 22.1 13.81 20.72 14.53C19.34 15.19 18.14 16.21 17.12 17.59C16.1 18.91 15.26 20.59 14.6 22.63C14 24.61 13.7 26.95 13.7 29.65C13.7 32.35 14 34.72 14.6 36.76C15.26 38.8 16.1 40.51 17.12 41.89C18.14 43.21 19.34 44.2 20.72 44.86C22.1 45.52 23.51 45.85 24.95 45.85C26.39 45.85 27.8 45.52 29.18 44.86C30.56 44.2 31.76 43.21 32.78 41.89C33.8 40.51 34.61 38.8 35.21 36.76C35.87 34.72 36.2 32.35 36.2 29.65ZM0.65 29.65C0.65 25.15 1.28 21.13 2.54 17.59C3.8 13.99 5.51 10.96 7.67 8.5C9.89 6.04 12.47 4.15 15.41 2.83C18.41 1.51 21.59 0.849995 24.95 0.849995C28.31 0.849995 31.46 1.51 34.4 2.83C37.4 4.15 39.98 6.04 42.14 8.5C44.36 10.96 46.1 13.99 47.36 17.59C48.62 21.13 49.25 25.15 49.25 29.65C49.25 34.15 48.62 38.2 47.36 41.8C46.1 45.34 44.36 48.34 42.14 50.8C39.98 53.26 37.4 55.15 34.4 56.47C31.46 57.79 28.31 58.45 24.95 58.45C21.59 58.45 18.41 57.79 15.41 56.47C12.47 55.15 9.89 53.26 7.67 50.8C5.51 48.34 3.8 45.34 2.54 41.8C1.28 38.2 0.65 34.15 0.65 29.65ZM78.0816 1.3V58H65.0316V17.5L59.1816 21.55L52.8816 11.65L67.7316 1.3H78.0816Z" fill="#BDBDBD"/>
</svg>
