<svg width="95" height="59" viewBox="0 0 95 59" fill="none" xmlns="http://www.w3.org/2000/svg">
<path d="M36.2 29.65C36.2 26.95 35.87 24.61 35.21 22.63C34.61 20.59 33.8 18.91 32.78 17.59C31.76 16.21 30.56 15.19 29.18 14.53C27.8 13.81 26.39 13.45 24.95 13.45C23.51 13.45 22.1 13.81 20.72 14.53C19.34 15.19 18.14 16.21 17.12 17.59C16.1 18.91 15.26 20.59 14.6 22.63C14 24.61 13.7 26.95 13.7 29.65C13.7 32.35 14 34.72 14.6 36.76C15.26 38.8 16.1 40.51 17.12 41.89C18.14 43.21 19.34 44.2 20.72 44.86C22.1 45.52 23.51 45.85 24.95 45.85C26.39 45.85 27.8 45.52 29.18 44.86C30.56 44.2 31.76 43.21 32.78 41.89C33.8 40.51 34.61 38.8 35.21 36.76C35.87 34.72 36.2 32.35 36.2 29.65ZM0.65 29.65C0.65 25.15 1.28 21.13 2.54 17.59C3.8 13.99 5.51 10.96 7.67 8.5C9.89 6.04 12.47 4.15 15.41 2.83C18.41 1.51 21.59 0.849995 24.95 0.849995C28.31 0.849995 31.46 1.51 34.4 2.83C37.4 4.15 39.98 6.04 42.14 8.5C44.36 10.96 46.1 13.99 47.36 17.59C48.62 21.13 49.25 25.15 49.25 29.65C49.25 34.15 48.62 38.2 47.36 41.8C46.1 45.34 44.36 48.34 42.14 50.8C39.98 53.26 37.4 55.15 34.4 56.47C31.46 57.79 28.31 58.45 24.95 58.45C21.59 58.45 18.41 57.79 15.41 56.47C12.47 55.15 9.89 53.26 7.67 50.8C5.51 48.34 3.8 45.34 2.54 41.8C1.28 38.2 0.65 34.15 0.65 29.65ZM94.7316 45.4V58H55.5816V49L76.2816 27.4C77.1816 26.44 77.9916 25.45 78.7116 24.43C79.3716 23.59 79.9416 22.63 80.4216 21.55C80.9616 20.47 81.2316 19.42 81.2316 18.4C81.2316 16.6 80.6916 15.19 79.6116 14.17C78.5316 13.09 76.9716 12.55 74.9316 12.55C72.6516 12.55 70.8816 13.18 69.6216 14.44C68.3616 15.7 67.7316 17.47 67.7316 19.75L55.1316 18.85C55.1316 16.27 55.5816 13.9 56.4816 11.74C57.4416 9.52 58.7616 7.6 60.4416 5.98C62.1816 4.36 64.2516 3.1 66.6516 2.2C69.1116 1.3 71.8716 0.849995 74.9316 0.849995C78.0516 0.849995 80.8416 1.27 83.3016 2.11C85.7616 2.95 87.8316 4.15 89.5116 5.71C91.2516 7.21 92.5416 9.01 93.3816 11.11C94.2816 13.21 94.7316 15.49 94.7316 17.95C94.7316 20.11 94.2516 22.18 93.2916 24.16C92.3916 26.08 91.3716 27.79 90.2316 29.29C88.9116 31.03 87.4116 32.65 85.7316 34.15L74.9316 45.4H94.7316Z" fill="#BDBDBD"/>
</svg>
