<svg width="183" height="124" viewBox="0 0 183 124" fill="none" xmlns="http://www.w3.org/2000/svg">
<g clip-path="url(#clip0_460_4114)">
<mask id="mask0_460_4114" style="mask-type:luminance" maskUnits="userSpaceOnUse" x="0" y="0" width="183" height="124">
<path d="M182.985 0.300293H0.057373V123.894H182.985V0.300293Z" fill="white"/>
</mask>
<g mask="url(#mask0_460_4114)">
<path d="M182.493 44.0551L155.05 18.8943L152.4 19.5576L154.37 18.8943L92.1194 1.20654H90.9234L27.5237 18.8943L0.0576172 44.0551L20.3933 49.229L20.3464 49.4276V105.852L63.8559 116.486V117.725L67.2101 117.326L90.337 122.987H92.7291L162.743 105.852V49.4276V49.0739L182.493 44.0551Z" fill="#FFD297"/>
<path d="M153.244 19.3365L93.6907 33.9731H88.7652L27.5237 18.8943L90.9234 1.20654L153.244 19.3365Z" fill="#F9A948"/>
<path d="M91.7913 1.58545C88.625 9.36806 81.0254 22.1917 67.1402 28.1171L56.1393 25.3976L29.7054 18.8973L82.1515 4.26072L91.7913 1.58545Z" fill="#DD872A"/>
<path d="M163.024 48.457V105.213L98.2409 121.088L91.2043 122.79L91.533 114.388L109.499 110.364L144.917 102.139C147.988 101.434 150.719 99.7747 152.668 97.4283C154.616 95.0819 155.67 92.1851 155.66 89.2054V50.867L163.024 48.457Z" fill="#F9A948"/>
<path d="M20.2992 48.457V101.741C20.2992 103.731 20.8621 105.567 22.9027 106.164L84.1912 121.176L92.518 123.674L90.8996 114.477L72.9326 110.453L37.5857 102.139C34.5098 101.438 31.7744 99.7807 29.8209 97.4338C27.8675 95.0874 26.8102 92.1883 26.8197 89.2054V50.867L20.2992 48.457Z" fill="#F9A948"/>
<path d="M27.6169 45.5795C29.4571 47.3469 31.7938 48.5833 34.3528 49.1429C36.9119 49.7029 39.5874 49.5638 42.0654 48.7411H42.1827C44.88 47.7903 47.7181 45.7564 47.4601 43.059C47.2687 41.8228 46.6504 40.6805 45.7009 39.8088C44.2587 38.2393 42.2386 37.2437 40.0482 37.023C38.1501 37.0806 36.2703 37.3933 34.4659 37.9516C30.6979 38.738 26.7683 38.469 23.1604 37.1778C22.2932 36.7993 21.3792 36.5245 20.4396 36.3597C19.9673 36.2846 19.4824 36.3244 19.0309 36.4753C18.5794 36.6262 18.1762 36.8832 17.8595 37.222C17.5187 37.8213 17.4284 38.5191 17.6064 39.178C17.7844 39.8369 18.2179 40.409 18.8212 40.7817C20.1009 41.4806 21.4845 41.9949 22.9259 42.3072C24.3973 42.755 25.7112 43.573 26.7256 44.673L27.6169 45.5795Z" fill="#FFEBD2"/>
<path d="M34.646 35.1832C34.7536 34.0154 32.6228 32.8872 29.8868 32.6634C27.1509 32.4396 24.8458 33.2049 24.7383 34.3727C24.6308 35.5405 26.7615 36.6687 29.4975 36.8926C32.2334 37.1164 34.5385 36.3511 34.646 35.1832Z" fill="#FFEBD2"/>
<path d="M20.299 86.9069C21.0503 86.9069 21.6594 86.3331 21.6594 85.6248C21.6594 84.9165 21.0503 84.3423 20.299 84.3423C19.5477 84.3423 18.9386 84.9165 18.9386 85.6248C18.9386 86.3331 19.5477 86.9069 20.299 86.9069Z" fill="#3E3126"/>
<path d="M29.7049 75.5357C30.2878 75.5357 30.7604 74.9216 30.7604 74.1648C30.7604 73.4075 30.2878 72.7939 29.7049 72.7939C29.122 72.7939 28.6494 73.4075 28.6494 74.1648C28.6494 74.9216 29.122 75.5357 29.7049 75.5357Z" fill="white"/>
<path d="M91.5335 32.5545C91.3719 32.5545 91.217 32.494 91.1025 32.3862C90.9879 32.2783 90.9238 32.1321 90.9238 31.9796V6.68617C90.9238 6.53371 90.9879 6.38747 91.1025 6.27967C91.217 6.17186 91.3719 6.11133 91.5335 6.11133C91.6956 6.11133 91.8505 6.17186 91.965 6.27967C92.0791 6.38747 92.1437 6.53371 92.1437 6.68617V31.9796C92.1437 32.1321 92.0791 32.2783 91.965 32.3862C91.8505 32.494 91.6956 32.5545 91.5335 32.5545Z" fill="#3E3126"/>
<path d="M27.4763 19.803C27.2486 19.7997 27.0295 19.7203 26.8581 19.5789C26.6866 19.4375 26.574 19.2434 26.5402 19.0311C26.5064 18.8187 26.5537 18.602 26.6736 18.4195C26.7935 18.2369 26.9782 18.1003 27.1949 18.0342L90.5243 0.346446C90.7665 0.277269 91.0287 0.301175 91.2524 0.412965C91.4767 0.524752 91.6446 0.715387 91.7204 0.943406C91.7873 1.17786 91.7568 1.42757 91.6344 1.64135C91.5121 1.85513 91.3082 2.01676 91.0636 2.09311L27.7343 19.7809L27.4763 19.803Z" fill="#3E3126"/>
<path d="M154.323 19.8008C154.231 19.8223 154.134 19.8223 154.042 19.8008L91.7917 2.09091C91.5471 2.01456 91.3427 1.85292 91.2209 1.63914C91.0985 1.42536 91.068 1.17565 91.135 0.941201C91.1675 0.824293 91.2243 0.714698 91.3024 0.618861C91.3806 0.523024 91.4781 0.442877 91.5898 0.383137C91.7009 0.323396 91.8242 0.285267 91.9514 0.270993C92.0786 0.256719 92.2077 0.266588 92.331 0.300018L154.605 17.9878C154.821 18.0539 155.006 18.1905 155.126 18.373C155.246 18.5556 155.293 18.7723 155.259 18.9846C155.226 19.197 155.113 19.3911 154.942 19.5325C154.77 19.6738 154.551 19.7532 154.323 19.7566V19.8008Z" fill="#3E3126"/>
<path d="M94.8163 34.5447H87.5215C87.3599 34.5447 87.2046 34.4842 87.0905 34.3764C86.9759 34.2686 86.9119 34.1223 86.9119 33.9699C86.9119 33.8174 86.9759 33.6712 87.0905 33.5634C87.2046 33.4556 87.3599 33.395 87.5215 33.395H94.8163C94.9779 33.395 95.1333 33.4556 95.2473 33.5634C95.3619 33.6712 95.426 33.8174 95.426 33.9699C95.426 34.1223 95.3619 34.2686 95.2473 34.3764C95.1333 34.4842 94.9779 34.5447 94.8163 34.5447Z" fill="#3E3126"/>
<path d="M92.8228 120.773C92.5942 120.768 92.3772 120.68 92.2156 120.528C92.0539 120.375 91.9607 120.17 91.9549 119.955V74.6083C91.934 74.488 91.9408 74.3649 91.9758 74.2477C92.0102 74.1302 92.0714 74.0213 92.1549 73.9284C92.2389 73.8355 92.3427 73.7609 92.4602 73.7101C92.5772 73.6589 92.7053 73.6323 92.8345 73.6323C92.9636 73.6323 93.0913 73.6589 93.2087 73.7101C93.3257 73.7609 93.4301 73.8355 93.5136 73.9284C93.5975 74.0213 93.6587 74.1302 93.6932 74.2477C93.7276 74.3649 93.7349 74.488 93.714 74.6083V119.955C93.7077 120.174 93.6111 120.382 93.4446 120.535C93.2781 120.688 93.0548 120.773 92.8228 120.773Z" fill="#F9A948"/>
<path d="M92.8228 69.8335C92.5942 69.828 92.3772 69.7397 92.2156 69.5878C92.0539 69.4354 91.9607 69.2304 91.9549 69.0154V66.6278C91.934 66.5075 91.9408 66.3844 91.9758 66.2668C92.0102 66.1497 92.0714 66.0408 92.1549 65.9479C92.2389 65.855 92.3427 65.7804 92.4602 65.7292C92.5772 65.6779 92.7053 65.6514 92.8345 65.6514C92.9636 65.6514 93.0913 65.6779 93.2087 65.7292C93.3257 65.7804 93.4301 65.855 93.5136 65.9479C93.5975 66.0408 93.6587 66.1497 93.6932 66.2668C93.7276 66.3844 93.7349 66.5075 93.714 66.6278V69.1037C93.6854 69.3068 93.5791 69.4935 93.415 69.6276C93.2505 69.7621 93.0398 69.8353 92.8228 69.8335Z" fill="#F9A948"/>
<path d="M92.8237 60.3742C92.5936 60.3742 92.3728 60.2877 92.2102 60.1344C92.0471 59.9812 91.9558 59.773 91.9558 59.5561V42.9075C91.9898 42.7108 92.0971 42.532 92.2582 42.4029C92.4194 42.274 92.6237 42.2031 92.8354 42.2031C93.0465 42.2031 93.2514 42.274 93.4125 42.4029C93.5737 42.532 93.681 42.7108 93.7149 42.9075V59.5561C93.7149 59.6654 93.6916 59.7734 93.6465 59.8741C93.6018 59.9752 93.5358 60.0663 93.4523 60.1427C93.3693 60.2186 93.2708 60.2786 93.163 60.3184C93.0548 60.3582 92.9397 60.377 92.8237 60.3742Z" fill="#F9A948"/>
<path d="M90.2899 123.894H90.0549L22.762 107.378C21.7825 107.142 20.9141 106.605 20.294 105.853C19.6739 105.1 19.3374 104.174 19.3376 103.221V90.1325C19.3345 90.0112 19.357 89.8913 19.4039 89.7788C19.4509 89.6662 19.5212 89.5633 19.6108 89.4768C19.7004 89.3903 19.8075 89.3217 19.9257 89.2745C20.0439 89.2279 20.171 89.2036 20.2992 89.2036C20.5564 89.2096 20.801 89.3098 20.9807 89.4832C21.1604 89.6571 21.261 89.89 21.2609 90.1325V103.221C21.262 103.772 21.4557 104.306 21.8119 104.742C22.1682 105.177 22.667 105.49 23.2311 105.631L90.5476 122.103C90.7927 122.165 91.002 122.316 91.1296 122.523C91.2573 122.731 91.2922 122.977 91.2277 123.208C91.1685 123.402 91.0457 123.572 90.8772 123.695C90.7083 123.818 90.503 123.888 90.2899 123.894Z" fill="#3E3126"/>
<path d="M20.2999 82.102C20.0449 82.102 19.8003 82.0064 19.6199 81.8367C19.4396 81.6664 19.3383 81.4358 19.3383 81.1956V75.2038C19.3383 74.9636 19.4396 74.733 19.6199 74.5628C19.8003 74.393 20.0449 74.2974 20.2999 74.2974C20.5549 74.2974 20.7995 74.393 20.9799 74.5628C21.1602 74.733 21.2616 74.9636 21.2616 75.2038V81.2176C21.2498 81.4523 21.1439 81.6742 20.9655 81.8385C20.787 82.0028 20.5492 82.0966 20.2999 82.102Z" fill="#3E3126"/>
<path d="M20.2999 69.3011C20.0449 69.3011 19.8003 69.2059 19.6199 69.0357C19.4396 68.866 19.3383 68.6354 19.3383 68.3947V49.4245C19.3383 49.1843 19.4396 48.9537 19.6199 48.7835C19.8003 48.6137 20.0449 48.5181 20.2999 48.5181C20.5531 48.5236 20.7942 48.621 20.9733 48.7899C21.1524 48.9587 21.2556 49.1861 21.2616 49.4245V68.3947C21.2616 68.6354 21.1602 68.866 20.9799 69.0357C20.7995 69.2059 20.5549 69.3011 20.2999 69.3011Z" fill="#3E3126"/>
<path d="M92.682 123.889C92.4689 123.883 92.2631 123.813 92.0947 123.69C91.9262 123.567 91.8034 123.396 91.7437 123.203C91.6864 122.969 91.7277 122.723 91.8587 122.517C91.9903 122.311 92.201 122.161 92.4475 122.098L159.741 105.626C160.307 105.488 160.808 105.177 161.165 104.74C161.522 104.304 161.714 103.767 161.711 103.216V49.4233C161.747 49.2046 161.865 49.0051 162.043 48.861C162.222 48.7169 162.449 48.6377 162.684 48.6377C162.919 48.6377 163.146 48.7169 163.325 48.861C163.503 49.0051 163.621 49.2046 163.657 49.4233V103.216C163.658 104.169 163.321 105.095 162.701 105.848C162.081 106.601 161.213 107.137 160.233 107.373L92.9164 123.845L92.682 123.889Z" fill="#3E3126"/>
<path d="M72.2287 105.9H72.088L55.1534 102.008C55.0777 101.993 55.0064 101.963 54.9428 101.921C54.8792 101.879 54.8253 101.826 54.784 101.764C54.7423 101.703 54.7146 101.634 54.7015 101.562C54.6884 101.49 54.6904 101.416 54.7078 101.345C54.7243 101.271 54.7564 101.201 54.802 101.138C54.8476 101.076 54.9059 101.023 54.9738 100.981C55.0413 100.94 55.117 100.912 55.1961 100.899C55.2753 100.885 55.3563 100.887 55.435 100.903L72.3695 104.728C72.5248 104.745 72.6666 104.82 72.7637 104.937C72.8603 105.053 72.9044 105.2 72.8855 105.347C72.8671 105.494 72.7874 105.627 72.6642 105.718C72.5409 105.81 72.3846 105.851 72.2287 105.834V105.9Z" fill="#3E3126"/>
<path d="M72.2292 102.008H72.0884L55.1539 98.2053C54.9995 98.1687 54.866 98.0762 54.783 97.9481C54.6995 97.82 54.6728 97.6663 54.7083 97.5198C54.7248 97.4462 54.7568 97.3766 54.8029 97.3148C54.8486 97.2535 54.9078 97.2014 54.9757 97.162C55.0437 97.1227 55.1194 97.097 55.1985 97.0861C55.2777 97.0755 55.3582 97.0801 55.4354 97.0998L72.37 100.903C72.5098 100.94 72.6306 101.022 72.7112 101.136C72.7918 101.25 72.8267 101.387 72.8097 101.523C72.7932 101.659 72.7253 101.784 72.619 101.878C72.5122 101.971 72.3743 102.025 72.2292 102.03V102.008Z" fill="#3E3126"/>
<path d="M72.2297 97.9544H72.0889L55.1544 94.1516C55.067 94.1443 54.982 94.1196 54.9058 94.0788C54.8296 94.0381 54.7636 93.9818 54.7122 93.915C54.6607 93.8478 54.6253 93.7709 54.6083 93.6899C54.5913 93.6089 54.5932 93.5252 54.6136 93.4446C54.634 93.3641 54.6728 93.2891 54.7272 93.2236C54.7811 93.1587 54.8495 93.1056 54.9277 93.0676C55.0058 93.0296 55.0918 93.0081 55.1791 93.0045C55.267 93.0008 55.3544 93.015 55.4359 93.0461L72.3704 96.8489C72.4481 96.8713 72.5199 96.9084 72.5821 96.9574C72.6442 97.0068 72.6952 97.0667 72.7326 97.1349C72.7695 97.2026 72.7918 97.2768 72.7981 97.3532C72.8044 97.4291 72.7947 97.506 72.7695 97.5783C72.7282 97.684 72.6554 97.7759 72.5593 97.8428C72.4632 97.9096 72.3486 97.9485 72.2297 97.9544Z" fill="#3E3126"/>
<path d="M72.2287 77.5728L55.2942 73.77V89.1584L72.2287 92.9612V77.5728Z" fill="white"/>
<path opacity="0.2" d="M72.2297 79.5396V92.8053L61.4637 90.3733C66.0829 87.8128 69.8206 84.0516 72.2297 79.5396Z" fill="#C9D2DF"/>
<path d="M151.613 104.991C155.232 104.136 157.645 101.484 157.002 99.0677C156.36 96.6513 152.905 95.3856 149.286 96.2408C145.668 97.0956 143.255 99.7476 143.897 102.164C144.539 104.58 147.994 105.846 151.613 104.991Z" fill="#F9A948"/>
<path d="M157.41 92.2069C157.716 91.1971 156.711 90.0413 155.167 89.6258C153.622 89.2103 152.122 89.6921 151.816 90.702C151.51 91.7118 152.515 92.8672 154.059 93.2826C155.604 93.6981 157.104 93.2168 157.41 92.2069Z" fill="#F9A948"/>
<g opacity="0.4">
<path opacity="0.4" d="M143.228 97.9999C143.914 97.9999 144.471 97.4751 144.471 96.8281C144.471 96.1806 143.914 95.6562 143.228 95.6562C142.542 95.6562 141.985 96.1806 141.985 96.8281C141.985 97.4751 142.542 97.9999 143.228 97.9999Z" fill="#F9A948"/>
<path opacity="0.4" d="M148.955 94.0736C149.076 93.6741 148.639 93.2065 147.979 93.029C147.319 92.8514 146.685 93.0308 146.565 93.4302C146.444 93.8292 146.881 94.2969 147.541 94.4744C148.201 94.6524 148.834 94.4726 148.955 94.0736Z" fill="#F9A948"/>
<path opacity="0.4" d="M138.959 99.632C139.231 99.632 139.451 99.4243 139.451 99.168C139.451 98.9113 139.231 98.7036 138.959 98.7036C138.687 98.7036 138.466 98.9113 138.466 99.168C138.466 99.4243 138.687 99.632 138.959 99.632Z" fill="#F9A948"/>
</g>
<path d="M124.254 108.132C125.601 108.132 126.693 107.34 126.693 106.363C126.693 105.387 125.601 104.595 124.254 104.595C122.907 104.595 121.814 105.387 121.814 106.363C121.814 107.34 122.907 108.132 124.254 108.132Z" fill="#F9A948"/>
<path d="M125.848 102.957C126.315 102.957 126.693 102.601 126.693 102.161C126.693 101.721 126.315 101.365 125.848 101.365C125.382 101.365 125.004 101.721 125.004 102.161C125.004 102.601 125.382 102.957 125.848 102.957Z" fill="#F9A948"/>
<path d="M118.576 107.488C119.224 107.488 119.749 106.993 119.749 106.383C119.749 105.772 119.224 105.277 118.576 105.277C117.929 105.277 117.404 105.772 117.404 106.383C117.404 106.993 117.929 107.488 118.576 107.488Z" fill="#F9A948"/>
<path opacity="0.45" d="M120.43 103.397C120.793 103.397 121.087 103.12 121.087 102.778C121.087 102.436 120.793 102.159 120.43 102.159C120.067 102.159 119.773 102.436 119.773 102.778C119.773 103.12 120.067 103.397 120.43 103.397Z" fill="#F9A948"/>
<path d="M62.918 62.2033C62.4025 62.2043 61.8895 62.137 61.3934 62.0043L23.5131 52.2321C23.4111 52.2065 23.3155 52.1621 23.2319 52.1012C23.1482 52.0408 23.0782 51.9649 23.0258 51.8784C22.9735 51.7924 22.9398 51.6967 22.9268 51.5979C22.9139 51.4995 22.9218 51.3993 22.9502 51.3032C22.9773 51.2071 23.0244 51.117 23.0888 51.0383C23.1532 50.9596 23.2335 50.8933 23.3252 50.8443C23.4167 50.7949 23.5179 50.7629 23.6226 50.751C23.7274 50.7386 23.8336 50.7459 23.9353 50.7729L61.7686 60.4568C62.4773 60.6508 63.2302 60.6522 63.9398 60.4605C64.6495 60.2688 65.2873 59.8917 65.7796 59.3733L87.8041 36.0477C87.9541 35.9239 88.1473 35.8559 88.3468 35.8564C88.5463 35.857 88.7385 35.926 88.888 36.0507C89.0375 36.1753 89.1337 36.347 89.1589 36.5336C89.1837 36.7203 89.1356 36.9091 89.0235 37.0647L66.9756 60.3685C66.4742 60.9263 65.8538 61.3779 65.1543 61.6941C64.4554 62.0102 63.6933 62.1837 62.918 62.2033Z" fill="#F9A948"/>
<path d="M119.68 62.4471C119 62.442 118.331 62.2924 117.721 62.0087C117.112 61.7255 116.579 61.316 116.161 60.8108L93.996 36.7333C93.8562 36.5808 93.7863 36.3822 93.8018 36.1811C93.8169 35.98 93.9164 35.7929 94.0785 35.661C94.2401 35.529 94.4508 35.463 94.6639 35.4776C94.8775 35.4921 95.076 35.5859 95.2158 35.7383L117.334 59.8156C117.721 60.3066 118.267 60.6649 118.889 60.8364C119.511 61.008 120.176 60.9833 120.782 60.7664L158.592 51.1489C158.797 51.0958 159.016 51.1223 159.201 51.2216C159.386 51.3214 159.521 51.4861 159.577 51.6792C159.633 51.8727 159.605 52.0796 159.5 52.2534C159.394 52.4278 159.219 52.5554 159.014 52.6081L121.204 62.2036C120.711 62.3514 120.197 62.4333 119.68 62.4471Z" fill="#F9A948"/>
<path d="M3.85701 43.1271C3.54767 43.123 3.2526 43.0038 3.03608 42.7955C2.92755 42.6965 2.84125 42.578 2.78231 42.447C2.72337 42.3159 2.69299 42.175 2.69299 42.0327C2.69299 41.8904 2.72337 41.7495 2.78231 41.6185C2.84125 41.4874 2.92755 41.3689 3.03608 41.2699L24.8026 21.128C25.5192 20.4653 26.4057 19.9887 27.3757 19.7446C28.3457 19.5005 29.3663 19.4972 30.338 19.7351L83.0888 33.0009C83.2354 33.0387 83.3723 33.1032 83.4922 33.1908C83.6121 33.2785 83.7121 33.3876 83.7873 33.5117C83.8625 33.636 83.9111 33.7729 83.93 33.9148C83.9489 34.0566 83.9383 34.2006 83.898 34.3386C83.8582 34.4765 83.7897 34.6056 83.6965 34.7186C83.6038 34.8315 83.4878 34.9261 83.3563 34.9969C83.2242 35.0678 83.0791 35.1135 82.9286 35.1314C82.7781 35.1493 82.6252 35.1391 82.4791 35.1013L29.7281 21.8355C29.149 21.689 28.5394 21.6874 27.9594 21.8309C27.3794 21.9743 26.8492 22.2579 26.421 22.6535L4.74831 42.8176C4.62926 42.9228 4.48904 43.0044 4.33594 43.0575C4.18284 43.1107 4.01999 43.1344 3.85701 43.1271Z" fill="#FFEBD2"/>
<path d="M99.484 34.9693C99.3054 34.9691 99.1321 34.9123 98.9918 34.8081C98.8511 34.7039 98.752 34.5582 98.7103 34.3945C98.6817 34.2987 98.6739 34.1985 98.6865 34.0998C98.6996 34.001 98.7336 33.9057 98.7855 33.8193C98.838 33.733 98.9083 33.6572 98.9918 33.5966C99.0753 33.5359 99.171 33.4915 99.2729 33.4659L152.024 20.2001C152.125 20.1733 152.232 20.1658 152.337 20.1781C152.441 20.1903 152.542 20.222 152.634 20.2714C152.725 20.3208 152.806 20.3868 152.871 20.4656C152.935 20.5444 152.982 20.6346 153.009 20.7307C153.037 20.828 153.044 20.9296 153.029 21.0295C153.015 21.1294 152.979 21.2255 152.924 21.3122C152.87 21.3988 152.797 21.4742 152.711 21.5338C152.625 21.5934 152.527 21.6361 152.422 21.6593L99.6952 34.9251L99.484 34.9693Z" fill="#FFEBD2"/>
<path d="M63.3869 61.036C63.2001 61.0575 63.0112 61.0575 62.8239 61.036L1.69971 45.5592C1.3358 45.4672 1.00422 45.286 0.73865 45.034C0.473082 44.7821 0.282991 44.4684 0.187692 44.1248C0.0923922 43.7812 0.0952809 43.4199 0.196063 43.0777C0.296846 42.7355 0.49193 42.4245 0.761498 42.1764L26.7968 18.2537C26.9141 18.1416 27.059 18.0585 27.2187 18.0122C27.3784 17.9659 27.5477 17.9577 27.7116 17.9884L89.0002 33.0672C89.1584 33.1101 89.3035 33.189 89.422 33.297C89.5404 33.4049 89.6292 33.5386 89.6802 33.6863C89.7273 33.837 89.7346 33.9962 89.7021 34.1502C89.669 34.3042 89.5972 34.4485 89.4928 34.5707L76.9207 47.8366C76.7498 48.0183 76.5091 48.1286 76.2518 48.1432C75.9945 48.1574 75.7416 48.075 75.5484 47.914C75.3557 47.7524 75.2387 47.5259 75.2232 47.283C75.2082 47.0405 75.2955 46.8021 75.4664 46.6204L87.0066 34.4822L27.7585 19.9119L2.14536 43.3482V43.6799L63.27 59.1568L70.3065 51.8385C70.4773 51.6596 70.7167 51.552 70.972 51.5397C71.2273 51.5273 71.4768 51.6106 71.6666 51.7721C71.8564 51.9332 71.9705 52.1588 71.9836 52.3995C71.9967 52.6401 71.9083 52.8753 71.737 53.0542L65.0291 60.3725C64.8223 60.5885 64.5684 60.7596 64.285 60.874C64.0015 60.9884 63.6952 61.0438 63.3869 61.036Z" fill="#3E3126"/>
<path d="M24.2327 29.4885C24.9584 28.4331 24.8065 27.1253 23.8934 26.5674C22.9803 26.0095 21.6518 26.4128 20.9261 27.4682C20.2003 28.5237 20.3523 29.8315 21.2654 30.3894C22.1784 30.9473 23.507 30.5439 24.2327 29.4885Z" fill="white"/>
<path d="M25.5538 27.0537C25.8517 27.0537 26.0933 26.826 26.0933 26.5452C26.0933 26.2643 25.8517 26.0366 25.5538 26.0366C25.2558 26.0366 25.0143 26.2643 25.0143 26.5452C25.0143 26.826 25.2558 27.0537 25.5538 27.0537Z" fill="white"/>
<path d="M21.6368 32.6222C22.0125 32.6222 22.317 32.3351 22.317 31.981C22.317 31.6269 22.0125 31.3398 21.6368 31.3398C21.2612 31.3398 20.9567 31.6269 20.9567 31.981C20.9567 32.3351 21.2612 32.6222 21.6368 32.6222Z" fill="white"/>
<path d="M12.2308 39.0621C12.9044 39.0621 13.4504 38.5473 13.4504 37.9124C13.4504 37.2774 12.9044 36.7627 12.2308 36.7627C11.5571 36.7627 11.0111 37.2774 11.0111 37.9124C11.0111 38.5473 11.5571 39.0621 12.2308 39.0621Z" fill="white"/>
<path d="M91.5335 120.512C91.3757 120.512 91.2243 120.455 91.1107 120.352C90.9966 120.249 90.9297 120.108 90.9238 119.96V74.6128C90.9238 74.4604 90.9879 74.314 91.1025 74.2065C91.217 74.0985 91.3719 74.0381 91.5335 74.0381C91.6956 74.0381 91.8505 74.0985 91.965 74.2065C92.0791 74.314 92.1437 74.4604 92.1437 74.6128V119.96C92.1374 120.108 92.0704 120.249 91.9568 120.352C91.8432 120.455 91.6913 120.512 91.5335 120.512Z" fill="#3E3126"/>
<path d="M91.5335 69.5726C91.3757 69.5726 91.2243 69.5154 91.1107 69.412C90.9966 69.309 90.9297 69.1686 90.9238 69.0199V66.6323C90.9238 66.4795 90.9879 66.3335 91.1025 66.2255C91.217 66.118 91.3719 66.0571 91.5335 66.0571C91.6956 66.0571 91.8505 66.118 91.965 66.2255C92.0791 66.3335 92.1437 66.4795 92.1437 66.6323V69.1082C92.116 69.2409 92.0398 69.3603 91.9281 69.4449C91.8165 69.53 91.6772 69.5753 91.5335 69.5726Z" fill="#3E3126"/>
<path d="M91.5335 60.1321C91.4534 60.1321 91.3743 60.1175 91.3005 60.0886C91.2262 60.0598 91.1593 60.0173 91.1025 59.9637C91.0457 59.9106 91.001 59.847 90.9704 59.7775C90.9394 59.7075 90.9238 59.6329 90.9238 59.5574V42.9089C90.9238 42.7564 90.9879 42.6102 91.1025 42.5024C91.217 42.3946 91.3719 42.334 91.5335 42.334C91.6956 42.334 91.8505 42.3946 91.965 42.5024C92.0791 42.6102 92.1437 42.7564 92.1437 42.9089V59.5574C92.1437 59.7098 92.0791 59.8562 91.965 59.9637C91.8505 60.0717 91.6956 60.1321 91.5335 60.1321Z" fill="#3E3126"/>
<path d="M72.2296 93.5165H72.0889L55.1543 89.7137C55.0218 89.684 54.9039 89.6135 54.8184 89.5133C54.7335 89.4131 54.6864 89.2891 54.6849 89.161V82.9921C54.6849 82.8397 54.7495 82.6938 54.8636 82.5858C54.9781 82.4778 55.133 82.4174 55.2951 82.4174C55.4567 82.4174 55.6116 82.4778 55.7261 82.5858C55.8407 82.6938 55.9048 82.8397 55.9048 82.9921V88.7409L71.62 92.2784V78.0399L55.9048 74.502V77.9511C55.9048 78.1039 55.8407 78.2499 55.7261 78.3579C55.6116 78.4654 55.4567 78.5263 55.2951 78.5263C55.133 78.5263 54.9781 78.4654 54.8636 78.3579C54.7495 78.2499 54.6849 78.1039 54.6849 77.9511V73.7726C54.6869 73.6871 54.7087 73.6029 54.7495 73.5265C54.7898 73.4501 54.848 73.3828 54.9194 73.3302C54.9927 73.2794 55.0767 73.2428 55.1655 73.224C55.2543 73.2048 55.3461 73.2034 55.4354 73.2199L72.3704 77.0447C72.5092 77.0859 72.6272 77.1742 72.701 77.2927C72.7748 77.4112 72.799 77.5517 72.7689 77.6857V93.0521C72.7675 93.1377 72.7451 93.2219 72.7049 93.2983C72.6641 93.3747 72.6058 93.442 72.5345 93.4946C72.4359 93.523 72.3316 93.5303 72.2296 93.5165Z" fill="#3E3126"/>
<path d="M29.7049 71.2712C29.5432 71.2712 29.388 71.2108 29.2737 71.1028C29.1593 70.9948 29.0951 70.8488 29.0951 70.6965V64.793C29.0951 64.6406 29.1593 64.4942 29.2737 64.3866C29.388 64.2787 29.5432 64.2183 29.7049 64.2183C29.8667 64.2183 30.0217 64.2787 30.1362 64.3866C30.2505 64.4942 30.3147 64.6406 30.3147 64.793V70.6965C30.3147 70.8488 30.2505 70.9948 30.1362 71.1028C30.0217 71.2108 29.8667 71.2712 29.7049 71.2712Z" fill="white"/>
<path d="M119.515 61.2559C119.182 61.2555 118.853 61.1882 118.55 61.0583C118.247 60.9288 117.976 60.7398 117.756 60.5042L93.2922 34.7241C93.1558 34.5832 93.0601 34.4114 93.015 34.2255C92.9698 34.0395 92.9766 33.8457 93.0344 33.6628C93.096 33.4781 93.2057 33.3107 93.3528 33.1757C93.5004 33.0406 93.681 32.9421 93.8785 32.889L155.167 17.8102C155.366 17.7656 155.572 17.7686 155.769 17.8188C155.966 17.869 156.146 17.9649 156.293 18.0976L182.282 41.8876C182.591 42.1665 182.814 42.52 182.925 42.9098C183.037 43.2995 183.034 43.7107 182.915 44.0986C182.809 44.4754 182.599 44.8191 182.306 45.0948C182.014 45.3705 181.649 45.5684 181.25 45.6684L120.125 61.1452C119.93 61.2129 119.723 61.2504 119.515 61.2559ZM96.3415 34.5914L119.515 58.9123L180.639 43.4353L155.12 20.198L96.3415 34.5914Z" fill="#3E3126"/>
<path d="M73.5899 51.238C74.3413 51.238 74.9505 50.6637 74.9505 49.9559C74.9505 49.2476 74.3413 48.6733 73.5899 48.6733C72.8389 48.6733 72.2297 49.2476 72.2297 49.9559C72.2297 50.6637 72.8389 51.238 73.5899 51.238Z" fill="#3E3126"/>
<path d="M67.3979 45.1127C67.3183 45.0938 67.2455 45.0557 67.1868 45.0021C67.1218 44.9585 67.0669 44.9028 67.0256 44.8384C66.9844 44.7741 66.9572 44.7025 66.946 44.628C66.9354 44.5534 66.9407 44.4776 66.9616 44.4051C66.9829 44.3326 67.0193 44.2648 67.0693 44.2062L72.3467 37.8828C72.4462 37.7596 72.5938 37.6788 72.7564 37.6581C72.9195 37.6373 73.0841 37.6784 73.2146 37.7722C73.3452 37.8661 73.4311 38.0049 73.453 38.1584C73.4753 38.3118 73.4316 38.4672 73.3321 38.5903L68.078 44.8916C68.0067 44.9944 67.9013 45.072 67.778 45.112C67.6552 45.1521 67.5212 45.1523 67.3979 45.1127Z" fill="#3E3126"/>
<path d="M72.7685 42.7095C72.6923 42.7304 72.6108 42.7304 72.5341 42.7095C72.4132 42.6144 72.3341 42.4801 72.3122 42.3329C72.2904 42.1857 72.3278 42.0362 72.4171 41.9135L75.114 38.376C75.1708 38.3218 75.2388 38.2789 75.3131 38.2495C75.3873 38.2202 75.4674 38.2051 75.548 38.2051C75.6291 38.2051 75.7087 38.2202 75.7834 38.2495C75.8577 38.2789 75.9252 38.3218 75.982 38.376C76.1048 38.4749 76.1849 38.613 76.2067 38.7639C76.2281 38.9149 76.1902 39.068 76.0994 39.1941L73.2612 42.599C73.1942 42.6524 73.1146 42.6902 73.0287 42.7094C72.9433 42.7286 72.8544 42.7286 72.7685 42.7095Z" fill="#3E3126"/>
</g>
</g>
<defs>
<clipPath id="clip0_460_4114">
<rect width="183" height="124" fill="white"/>
</clipPath>
</defs>
</svg>
