<svg width="32" height="32" viewBox="0 0 32 32" fill="none" xmlns="http://www.w3.org/2000/svg">
<path fill-rule="evenodd" clip-rule="evenodd" d="M21.212 2.6665C25.404 2.6665 28.22 5.53717 28.22 9.80917V22.0705C28.22 26.3798 25.4907 29.1825 21.2667 29.2092L11.0093 29.2132C6.81733 29.2132 4 26.3425 4 22.0705V9.80917C4 5.4985 6.72933 2.69717 10.9533 2.67184L21.2107 2.6665H21.212ZM21.212 4.6665L10.96 4.67184C7.856 4.6905 6 6.6105 6 9.80917V22.0705C6 25.2905 7.87333 27.2132 11.008 27.2132L21.26 27.2092C24.364 27.1905 26.22 25.2678 26.22 22.0705V9.80917C26.22 6.58917 24.348 4.6665 21.212 4.6665ZM20.9548 20.6314C21.5068 20.6314 21.9548 21.0794 21.9548 21.6314C21.9548 22.1834 21.5068 22.6314 20.9548 22.6314H11.3281C10.7761 22.6314 10.3281 22.1834 10.3281 21.6314C10.3281 21.0794 10.7761 20.6314 11.3281 20.6314H20.9548ZM20.9548 15.0494C21.5068 15.0494 21.9548 15.4974 21.9548 16.0494C21.9548 16.6014 21.5068 17.0494 20.9548 17.0494H11.3281C10.7761 17.0494 10.3281 16.6014 10.3281 16.0494C10.3281 15.4974 10.7761 15.0494 11.3281 15.0494H20.9548ZM15.0011 9.48037C15.5531 9.48037 16.0011 9.92837 16.0011 10.4804C16.0011 11.0324 15.5531 11.4804 15.0011 11.4804H11.3277C10.7757 11.4804 10.3277 11.0324 10.3277 10.4804C10.3277 9.92837 10.7757 9.48037 11.3277 9.48037H15.0011Z" fill="white"/>
</svg>
