<svg width="399" height="286" viewBox="0 0 399 286" fill="none" xmlns="http://www.w3.org/2000/svg">
<path d="M72.2988 246.608C72.2988 245.072 72.2111 243.552 72.1951 242.048L72.4185 242.272C68.7956 242.312 65.1647 242.4 61.5418 242.408L50.6651 242.456L51.072 242.048V251.264L50.705 250.896C52.4925 250.896 54.28 250.896 56.0835 250.944L61.446 251L72.4185 251.232L72.2988 246.608ZM61.6376 251.488L56.1633 251.584C54.3359 251.584 52.5005 251.584 50.6651 251.632H50.274V251.264V242.048V241.632H50.689L61.5657 241.688C65.1887 241.688 68.8196 241.776 72.4425 241.824H72.618V242.048C72.618 243.608 72.5462 245.168 72.5143 246.704L72.3946 251.264L61.6376 251.488Z" fill="#EBEBEB"/>
<path d="M60.1693 258.2C60.1294 256.664 60.0735 255.152 60.0575 253.64L60.281 253.864C56.6581 253.912 53.0351 254 49.4042 254L38.5275 254.056L38.9425 253.64L38.8946 262.856L38.5275 262.488C40.323 262.488 42.1105 262.488 43.906 262.536L49.3085 262.632L60.281 262.856L60.1693 258.2ZM49.4761 263.112L44.0018 263.2C42.1744 263.24 40.339 263.2 38.5036 263.248H38.1365V262.872V253.656V253.248H38.5514L49.4282 253.296C53.0591 253.296 56.682 253.392 60.3049 253.432H60.5363V253.648C60.5363 255.248 60.4645 256.768 60.4326 258.304L60.3129 262.864L49.4761 263.112Z" fill="#EBEBEB"/>
<path d="M84.4364 258.2C84.4364 256.664 84.3407 255.152 84.3247 253.64L84.5561 253.864C80.9252 253.912 77.3023 254 73.6794 254L62.8027 254.056L63.2096 253.64L63.1618 262.856L62.8027 262.488C64.5902 262.488 66.3777 262.488 68.1732 262.536L73.5836 262.632L84.5561 262.856L84.4364 258.2ZM73.7672 263.088L68.3009 263.176C66.4735 263.216 64.6301 263.176 62.8027 263.224H62.4356V262.848L62.3877 253.632V253.224H62.8027L73.6794 253.272C77.3023 253.272 80.9252 253.368 84.5561 253.408H84.7796V253.624C84.7796 255.224 84.7078 256.744 84.6679 258.28L84.5561 262.84L73.7672 263.088Z" fill="#EBEBEB"/>
<path d="M348.407 258.2C348.367 256.664 348.311 255.152 348.295 253.64L348.519 253.864C344.896 253.912 341.273 254 337.642 254L326.765 254.056L327.18 253.64L327.132 262.856L326.765 262.488C328.561 262.488 330.348 262.488 332.144 262.536L337.554 262.632L348.519 262.856L348.407 258.2ZM337.738 263.088L332.271 263.176C330.436 263.216 328.601 263.176 326.765 263.224H326.382V262.848V253.664V253.256H326.789L337.666 253.304C341.297 253.304 344.92 253.4 348.543 253.44H348.726V253.656C348.726 255.256 348.654 256.776 348.614 258.312L348.495 262.872L337.738 263.088Z" fill="#EBEBEB"/>
<path d="M348.407 15.0002C348.367 13.4642 348.311 11.9522 348.295 10.4402L348.519 10.6642C344.896 10.7042 341.273 10.7922 337.642 10.8002L326.765 10.8482L327.18 10.4402L327.132 19.6562L326.765 19.2882C328.561 19.2882 330.348 19.2882 332.144 19.3362L337.554 19.4242L348.519 19.6562L348.407 15.0002ZM337.738 19.8882L332.271 19.9762C330.436 20.0162 328.601 19.9762 326.765 20.0242H326.382V19.6562V10.4722V10.0562H326.789L337.666 10.1042C341.297 10.1042 344.92 10.2002 348.543 10.2402H348.726V10.4642C348.726 12.0242 348.654 13.5842 348.614 15.1202L348.495 19.6802L337.738 19.8882Z" fill="#EBEBEB"/>
<path d="M360.544 26.6483C360.505 25.1203 360.449 23.6003 360.433 22.0963L360.656 22.3203C357.033 22.3203 353.402 22.4483 349.779 22.4483L338.903 22.5043L339.31 22.0963L339.27 31.3043L338.903 30.9443C340.698 30.9443 342.486 30.9443 344.281 30.9443L349.684 31.0403L360.656 31.2643L360.544 26.6483ZM349.875 31.5363L344.401 31.6323C342.574 31.6323 340.738 31.6323 338.903 31.6323H338.536V31.2563L338.496 22.0483V21.6323H338.911L349.787 21.6883C353.41 21.6883 357.041 21.7763 360.664 21.8163H360.896V22.0403C360.896 23.6003 360.824 25.1523 360.792 26.6963L360.696 31.3043L349.875 31.5363Z" fill="#EBEBEB"/>
<path d="M60.1693 15.0403C60.1294 13.5043 60.0735 11.9923 60.0575 10.4803L60.281 10.7043C56.6581 10.7523 53.0351 10.8403 49.4042 10.8403L38.5275 10.8963L38.9425 10.4803L38.8946 19.6963L38.5275 19.3283C40.323 19.3283 42.1105 19.3283 43.906 19.3763L49.3085 19.4643L60.281 19.6963L60.1693 15.0403ZM49.4761 19.9283L44.0018 20.0163C42.1744 20.0163 40.339 20.0163 38.5036 20.0643H38.1365V19.6963V10.4803V10.0723H38.5514L49.4282 10.1203C53.0591 10.1203 56.682 10.2163 60.3049 10.2563H60.5363V10.4803C60.5363 12.0803 60.4645 13.6003 60.4326 15.1363L60.3129 19.6963L49.4761 19.9283Z" fill="#EBEBEB"/>
<path d="M221.557 232.784C221.597 234.32 221.653 235.84 221.661 237.344L221.437 237.12C225.068 237.12 228.691 236.992 232.314 236.984L243.191 236.936L242.784 237.344L242.831 228.128L243.191 228.496C241.403 228.496 239.616 228.496 237.82 228.456L232.41 228.36L221.437 228.128L221.557 232.784ZM232.226 227.904L237.692 227.808C239.52 227.768 241.363 227.808 243.191 227.768H243.558V228.136L243.606 237.352V237.768H243.191L232.314 237.712C228.691 237.712 225.068 237.624 221.437 237.576H221.214V237.352C221.214 235.792 221.285 234.24 221.325 232.696L221.437 228.136L232.226 227.904Z" fill="#EBEBEB"/>
<path d="M233.694 221.168C233.694 222.704 233.782 224.216 233.798 225.728L233.575 225.504C237.198 225.456 240.829 225.368 244.451 225.368L255.328 225.312L254.921 225.728L254.961 216.512L255.328 216.88C253.541 216.88 251.753 216.88 249.95 216.832L244.547 216.744L233.575 216.512L233.694 221.168ZM244.356 216.28L249.83 216.192C251.657 216.152 253.493 216.192 255.328 216.144H255.695V216.512L255.743 225.728V226.136H255.36L244.483 226.088C240.86 226.088 237.23 225.992 233.607 225.952H233.383V225.728C233.383 224.128 233.455 222.608 233.487 221.072L233.607 216.512L244.356 216.28Z" fill="#EBEBEB"/>
<path d="M74.214 117.768C74.214 119.304 74.3097 120.816 74.3257 122.328L74.0943 122.104C77.7252 122.104 81.3481 121.968 84.971 121.968L95.8478 121.912L95.4408 122.328L95.4887 113.112L95.8478 113.48C94.0602 113.48 92.2727 113.48 90.4772 113.432L85.0668 113.344L74.0943 113.112L74.214 117.768ZM84.8833 112.88L90.3496 112.792C92.177 112.752 94.0203 112.792 95.8478 112.744H96.2148V113.112L96.2627 122.328V122.744H95.8478L84.971 122.696C81.3481 122.696 77.7252 122.6 74.0943 122.56H73.8708V122.336C73.8708 120.736 73.9427 119.216 73.9826 117.68L74.0943 113.12L84.8833 112.88Z" fill="#EBEBEB"/>
<path d="M265.989 182.752V303.904H339.038V182.752H265.989ZM332.407 259.192H272.621V227.656H332.407V259.192ZM332.407 220.144H272.621V188.6H332.407V220.144Z" fill="#EBEBEB"/>
<path d="M368.253 182.752H339.038V303.896H368.253V182.752Z" fill="#DBDBDB"/>
<path d="M286.825 188.608H272.621V220.144H286.825V188.608Z" fill="#DBDBDB"/>
<path d="M332.702 296.6H272.693V265.928H332.702V296.6ZM273.291 296H332.104V266.528H273.291V296Z" fill="#DBDBDB"/>
<path d="M306.113 274.688H294.31V280.672H306.113V274.688Z" fill="#DBDBDB"/>
<path d="M309.895 280.52H297.494V274.84H309.895V280.52ZM298.093 279.92H309.265V275.44H298.093V279.92Z" fill="#DBDBDB"/>
<path d="M286.825 227.656H272.621V259.192H286.825V227.656Z" fill="#DBDBDB"/>
<path d="M141.661 55.6802H41.911V61.6162H141.661V55.6802Z" fill="#EBEBEB"/>
<path d="M55.4052 61.6162H49.4761V81.2562H55.4052V61.6162Z" fill="#EBEBEB"/>
<path d="M55.4052 61.6162H49.4761V67.6882H55.4052V61.6162Z" fill="#DBDBDB"/>
<path d="M134.088 61.6162H128.159V81.2562H134.088V61.6162Z" fill="#EBEBEB"/>
<path d="M134.088 61.6162H128.159V67.6882H134.088V61.6162Z" fill="#DBDBDB"/>
<path d="M76.624 55.672V17.832H67.1198V55.672H76.624Z" fill="#C7C7C7"/>
<path d="M76.624 19.9759V15.8159H67.1198V19.9759H76.624Z" fill="#DBDBDB"/>
<path d="M76.624 26.8482V25.3042H67.1198V26.8482H76.624Z" fill="#DBDBDB"/>
<path d="M77.8051 50.7201V46.5601H67.1119V50.7201H77.8051Z" fill="#DBDBDB"/>
<path d="M83.2634 55.6801V11.5361H76.6161V55.6801H83.2634Z" fill="#DBDBDB"/>
<path d="M81.9148 32.664V15.688H77.9248V32.664H81.9148Z" fill="#EBEBEB"/>
<path d="M130.528 50.9585L99.213 19.9243L94.5398 24.6635L125.855 55.6978L130.528 50.9585Z" fill="#C7C7C7"/>
<path d="M122.255 44.601L110.213 32.6665L107.408 35.5112L119.45 47.4457L122.255 44.601Z" fill="#DBDBDB"/>
<path d="M94.5471 55.6803V22.1523H83.2634V55.6803H94.5471Z" fill="#A6A6A6"/>
<path d="M94.5471 52.1363V49.0083H83.2634V52.1363H94.5471Z" fill="#C7C7C7"/>
<path d="M94.5471 46.9521V45.7441H83.2634V46.9521H94.5471Z" fill="#C7C7C7"/>
<path d="M67.1199 55.6883V24.1763H59.3234V55.6883H67.1199Z" fill="#A6A6A6"/>
<path d="M67.1199 52.3442V49.4082H59.3234V52.3442H67.1199Z" fill="#C7C7C7"/>
<path d="M67.1199 33.6084V30.6724H59.3234V33.6084H67.1199Z" fill="#C7C7C7"/>
<path d="M67.1199 36.7522V35.6162H59.3234V36.7522H67.1199Z" fill="#C7C7C7"/>
<path d="M89.8946 231.128C79.9675 244.608 69.6175 260.248 67.0958 277.152C67.0841 277.21 67.0961 277.271 67.129 277.321C67.1619 277.37 67.2131 277.404 67.2713 277.416C67.3295 277.428 67.39 277.416 67.4394 277.383C67.4888 277.35 67.523 277.298 67.5347 277.24C68.6744 272.629 70.1411 268.106 71.9237 263.704C78.4513 261.904 84.8593 260.424 88.2827 253.928C91.7779 247.256 91.339 238.552 90.6767 231.28C90.6208 230.888 90.0941 230.872 89.8946 231.128Z" fill="#AE1624"/>
<path d="M72.0194 263.576C76.4803 253.544 82.2099 243.472 89.4877 235.224C89.5355 235.168 89.6074 235.224 89.5675 235.304C84.7795 241.176 81.1805 247.576 77.6453 254.088C80.9331 250.744 84.5321 247.744 87.6443 244.2C87.7081 244.128 87.8039 244.2 87.748 244.296C84.6518 248.016 81.2762 252.056 77.2543 254.808C76.169 256.808 75.0838 258.808 73.9745 260.816C74.2459 260.664 74.5252 260.528 74.7725 260.392C74.8204 260.392 74.8603 260.44 74.8124 260.464C74.5092 260.624 74.206 260.784 73.8868 260.92C73.3601 261.872 72.8494 262.816 72.2908 263.76C72.2189 263.976 71.9317 263.8 72.0194 263.576Z" fill="#263238"/>
<path d="M75.3392 260.08C78.0168 258.587 80.5754 256.888 82.992 255C83.0558 254.952 83.1516 255 83.0877 255.096C80.7585 257.111 78.2069 258.853 75.4828 260.288C75.3232 260.328 75.2195 260.144 75.3392 260.08Z" fill="#263238"/>
<path d="M65.9467 274.64C65.9467 274.848 66.3138 274.84 66.3138 274.64C66.3616 269.04 66.3138 263.48 66.4015 257.888C67.822 255.008 70.8783 253.416 73.001 251.112C74.5346 249.426 75.8731 247.571 76.991 245.584C79.5399 240.82 81.093 235.586 81.5556 230.2C82.1381 224.24 79.8877 204.6 77.382 205.28C76.0813 205.632 71.8838 215.36 70.7666 218.584C68.9444 223.886 67.6089 229.343 66.7766 234.888C64.7816 248.008 64.9572 261.456 65.9467 274.64Z" fill="#AE1624"/>
<path d="M65.9068 250.624C66.21 243.576 67.798 236.464 69.2743 229.632C70.8703 222.272 72.7377 215.344 76.5202 208.784C76.584 208.664 76.7676 208.784 76.7037 208.896C74.1853 213.999 72.2344 219.365 70.8863 224.896C71.1417 224.504 71.4529 224.096 71.6843 223.752C71.788 223.6 72.0274 223.752 71.9237 223.896C71.587 224.491 71.1914 225.052 70.7427 225.568H70.6948C69.394 230.832 68.4604 236.208 67.6624 241.568C67.7251 241.502 67.7838 241.433 67.8379 241.36C67.8379 241.36 67.9497 241.36 67.9257 241.424L67.6065 241.96C67.1995 244.68 66.8085 247.4 66.4494 250.096C71.2933 245.952 75.4269 241.064 77.7571 235.04C75.4748 241.288 71.8758 246.84 66.3377 250.624C66.234 251.352 66.1302 252.08 66.0345 252.8C66.0345 252.952 65.7711 252.912 65.7711 252.8C65.7711 252.152 65.7711 251.512 65.827 250.872C65.8118 250.851 65.8017 250.828 65.7976 250.802C65.7934 250.777 65.7953 250.751 65.8031 250.727C65.811 250.703 65.8244 250.681 65.8425 250.663C65.8605 250.645 65.8825 250.632 65.9068 250.624Z" fill="#263238"/>
<path d="M68.1891 240.424C71.8838 234.888 75.3711 229.52 78.0444 223.4C78.0444 223.336 78.188 223.4 78.1641 223.456C75.8818 229.528 72.6898 235.688 68.3726 240.568C68.2849 240.664 68.1093 240.536 68.1891 240.424Z" fill="#263238"/>
<path d="M73.0968 222.04C74.6289 219.32 76.2888 216.672 77.6853 213.904C77.7332 213.824 77.8369 213.904 77.805 213.976C76.6207 216.873 75.1221 219.631 73.3362 222.2C73.2324 222.312 73.009 222.2 73.0968 222.04Z" fill="#263238"/>
<path d="M62.1881 258.544C62.114 262.233 61.681 265.907 60.8953 269.512C60.9485 269.907 61.0044 270.307 61.0629 270.712C62.205 266.731 62.8693 262.627 63.0419 258.488C63.0756 258.43 63.0933 258.363 63.0933 258.296C63.0933 258.229 63.0756 258.162 63.0419 258.104C63.2059 252.557 62.7967 247.007 61.821 241.544C60.0973 231.312 56.3467 221.496 49.2286 213.824C49.169 213.772 49.0982 213.734 49.0217 213.714C48.9452 213.694 48.8652 213.692 48.7878 213.709C48.7105 213.725 48.6379 213.759 48.5759 213.808C48.5139 213.857 48.4642 213.92 48.4306 213.992C45.5578 221.312 46.5632 230.04 49.0131 237.344C50.3387 241.301 52.2398 245.04 54.655 248.44C57.0968 251.872 60.209 254.784 62.1881 258.544Z" fill="#AE1624"/>
<path d="M50.0585 217.24C56.8016 228.216 61.5019 241.24 62.0684 254.192C62.0684 254.416 61.6934 254.48 61.6615 254.248C61.5019 253.08 61.3263 251.928 61.1428 250.776C58.3577 248.096 55.4929 245.264 53.4899 241.92C53.4899 241.864 53.5458 241.792 53.5857 241.848C55.9049 244.693 58.3882 247.399 61.0231 249.952C60.5363 247.088 59.9697 244.272 59.2914 241.488L58.7567 240.864C58.637 240.72 58.8365 240.52 58.9562 240.664L59.1158 240.84C58.1677 237.038 56.9899 233.298 55.5887 229.64C53.873 227.584 51.9578 225.816 50.7049 223.336C50.6986 223.324 50.6971 223.311 50.7008 223.298C50.7046 223.285 50.7132 223.274 50.7249 223.268C50.7365 223.262 50.7502 223.26 50.7629 223.264C50.7756 223.268 50.7864 223.276 50.7927 223.288C51.7982 224.704 52.7717 226.128 53.9129 227.44C54.3677 227.96 54.8705 228.448 55.3413 228.96C53.78 224.976 51.9289 221.112 49.8032 217.4C49.7873 217.366 49.7844 217.328 49.7948 217.292C49.8053 217.257 49.8285 217.226 49.86 217.206C49.8914 217.186 49.929 217.179 49.9656 217.185C50.0022 217.191 50.0353 217.211 50.0585 217.24Z" fill="#263238"/>
<path d="M51.4231 230.784C53.6016 233.72 56.0914 236.528 58.1183 239.584C58.1741 239.672 58.0465 239.76 57.9746 239.696C55.3732 237.24 53.1866 233.896 51.2794 230.896C51.2156 230.768 51.3592 230.696 51.4231 230.784Z" fill="#263238"/>
<path d="M58.4216 240.248L58.5094 240.344C58.5812 240.408 58.5094 240.504 58.4136 240.44L58.3179 240.352C58.254 240.288 58.3578 240.184 58.4216 240.248Z" fill="#263238"/>
<path d="M39.493 238.336C40.2875 244.466 42.7502 250.259 46.6112 255.08C48.2025 256.968 50.167 258.504 52.3807 259.592C54.8784 260.832 57.4959 262.264 60.0814 263.28C61.3136 266.417 62.2279 269.671 62.8106 272.992C62.8983 272.704 62.9781 272.416 63.0579 272.128C61.3981 257.84 52.1732 245.616 40.3708 237.776C40.2786 237.717 40.1717 237.686 40.0625 237.686C39.9534 237.686 39.8465 237.717 39.7544 237.776C39.6623 237.835 39.5888 237.919 39.5425 238.018C39.4962 238.117 39.479 238.227 39.493 238.336Z" fill="#AE1624"/>
<path d="M43.5708 242.56C43.491 242.488 43.5708 242.336 43.6905 242.408C50.1761 247.241 55.3482 253.628 58.7328 260.984C58.8126 261.184 58.5493 261.352 58.4376 261.16C57.8869 260.192 57.3283 259.256 56.7618 258.336C54.0645 257.832 51.5109 255.936 49.5159 254.12C49.4601 254.072 49.5159 253.992 49.5957 254.04C50.6245 254.983 51.7696 255.789 53.0032 256.44C54.1044 257 55.2855 257.352 56.4266 257.8C55.4318 256.2 54.389 254.672 53.2984 253.216C50.3899 252.105 47.6627 250.565 45.2067 248.648C45.1269 248.592 45.2067 248.472 45.2785 248.52C47.7163 249.983 50.2281 251.318 52.8037 252.52C51.1623 250.344 49.3901 248.271 47.497 246.312C46.5793 245.824 45.6536 245.336 44.7598 244.824C44.7443 244.814 44.7329 244.798 44.7277 244.78C44.7225 244.762 44.7238 244.742 44.7315 244.725C44.7391 244.708 44.7525 244.694 44.7694 244.686C44.7862 244.678 44.8055 244.675 44.8237 244.68C45.5578 244.942 46.2593 245.289 46.9144 245.712C45.8451 244.664 44.7439 243.6 43.5708 242.56Z" fill="#263238"/>
<path d="M43.8261 247.496C43.9834 247.593 44.1328 247.703 44.273 247.824C44.3209 247.864 44.273 247.92 44.2171 247.896C44.0526 247.819 43.8951 247.728 43.7463 247.624C43.7294 247.613 43.7174 247.596 43.7129 247.577C43.7084 247.557 43.7118 247.537 43.7224 247.52C43.733 247.503 43.7498 247.491 43.7693 247.486C43.7887 247.482 43.8092 247.485 43.8261 247.496Z" fill="#263238"/>
<path d="M81.4838 303.944H49.1409L51.7503 274.424L52.3249 267.912H78.2918L78.8664 274.424L81.4838 303.944Z" fill="#455A64"/>
<path d="M78.8663 274.424H51.7502L52.3248 267.912H78.2917L78.8663 274.424Z" fill="#263238"/>
<path d="M79.8399 263.36H50.7767V269.8H79.8399V263.36Z" fill="#455A64"/>
<path d="M356.467 14.624H112.015V210.544H356.467V14.624Z" fill="white"/>
<path d="M356.866 210.936H111.616V14.2002H356.866V210.936ZM112.414 210.136H356.068V15.0002H112.414V210.136Z" fill="#EBEBEB"/>
<path d="M356.467 14.624H112.015V23.912H356.467V14.624Z" fill="#455A64"/>
<path d="M119.764 19.264C119.765 19.6805 119.644 20.088 119.414 20.4351C119.184 20.7821 118.857 21.053 118.474 21.2135C118.09 21.374 117.668 21.4168 117.26 21.3365C116.853 21.2562 116.478 21.0565 116.184 20.7626C115.89 20.4686 115.689 20.0938 115.607 19.6854C115.526 19.2771 115.567 18.8536 115.725 18.4687C115.884 18.0838 116.153 17.7547 116.498 17.5231C116.843 17.2916 117.25 17.168 117.665 17.168C117.94 17.1669 118.213 17.2204 118.468 17.3252C118.722 17.4301 118.954 17.5843 119.149 17.7791C119.344 17.9738 119.498 18.2052 119.604 18.46C119.709 18.7148 119.764 18.9881 119.764 19.264Z" fill="#AE1624"/>
<path d="M128.302 19.264C128.302 19.6785 128.18 20.0838 127.95 20.4284C127.72 20.7731 127.394 21.0418 127.012 21.2004C126.63 21.3591 126.209 21.4006 125.804 21.3197C125.398 21.2388 125.026 21.0392 124.733 20.7461C124.441 20.4529 124.242 20.0795 124.161 19.6729C124.08 19.2663 124.122 18.8449 124.28 18.4619C124.438 18.0789 124.706 17.7515 125.05 17.5212C125.394 17.2909 125.798 17.168 126.212 17.168C126.766 17.168 127.298 17.3888 127.69 17.7819C128.082 18.1749 128.302 18.7081 128.302 19.264Z" fill="#EBEBEB"/>
<path d="M136.841 19.264C136.841 19.6785 136.718 20.0838 136.489 20.4284C136.259 20.7731 135.932 21.0418 135.55 21.2004C135.168 21.3591 134.748 21.4006 134.342 21.3197C133.937 21.2388 133.564 21.0392 133.272 20.7461C132.979 20.4529 132.78 20.0795 132.7 19.6729C132.619 19.2663 132.66 18.8449 132.819 18.4619C132.977 18.0789 133.245 17.7515 133.589 17.5212C133.932 17.2909 134.337 17.168 134.75 17.168C135.305 17.168 135.836 17.3888 136.229 17.7819C136.621 18.1749 136.841 18.7081 136.841 19.264Z" fill="white"/>
<path d="M317.859 145.672H259.717V186.384H317.859V145.672Z" fill="#DBDBDB"/>
<path d="M299.537 141.456H317.859V145.672H298.484L299.537 141.456Z" fill="#DBDBDB"/>
<path d="M259.853 186.392H317.995L321.993 149.056H263.851L259.853 186.392Z" fill="#EBEBEB"/>
<path d="M304.086 145.184H322.408L321.993 149.056H302.617L304.086 145.184Z" fill="#EBEBEB"/>
<path d="M224.916 191.2L178.329 191.176L178.361 131.224L212.954 131.24L224.94 142.672L224.916 191.2Z" fill="#AE1624"/>
<path opacity="0.6" d="M224.916 191.2L178.329 191.176L178.361 131.224L212.954 131.24L224.94 142.672L224.916 191.2Z" fill="white"/>
<path d="M212.954 131.24L224.94 142.672L212.946 142.664L212.954 131.24Z" fill="#AE1624"/>
<path opacity="0.4" d="M212.954 131.24L224.94 142.672L212.946 142.664L212.954 131.24Z" fill="white"/>
<path d="M182.895 142.818L208.798 142.832L208.799 141.296L182.896 141.282L182.895 142.818Z" fill="#AE1624"/>
<path d="M182.905 146.714L208.808 146.728L208.809 145.192L182.906 145.178L182.905 146.714Z" fill="#AE1624"/>
<path d="M182.899 150.594L208.802 150.608L208.803 149.072L182.9 149.058L182.899 150.594Z" fill="#AE1624"/>
<path d="M182.893 154.484L220.846 154.504L220.847 152.968L182.894 152.948L182.893 154.484Z" fill="#AE1624"/>
<path d="M182.887 158.364L220.84 158.384L220.841 156.848L182.888 156.828L182.887 158.364Z" fill="#AE1624"/>
<path d="M182.889 162.252L220.842 162.272L220.843 160.736L182.89 160.716L182.889 162.252Z" fill="#AE1624"/>
<path d="M182.891 166.14L220.844 166.16L220.845 164.624L182.892 164.604L182.891 166.14Z" fill="#AE1624"/>
<path d="M182.885 170.02L220.838 170.04L220.839 168.504L182.886 168.484L182.885 170.02Z" fill="#AE1624"/>
<path d="M182.879 173.908L220.832 173.928L220.833 172.392L182.88 172.372L182.879 173.908Z" fill="#AE1624"/>
<path d="M182.889 177.788L220.842 177.808L220.843 176.272L182.89 176.252L182.889 177.788Z" fill="#AE1624"/>
<path d="M182.883 181.684L220.836 181.704L220.837 180.168L182.884 180.148L182.883 181.684Z" fill="#AE1624"/>
<path d="M182.877 185.564L220.83 185.584L220.831 184.048L182.878 184.028L182.877 185.564Z" fill="#AE1624"/>
<path d="M290.177 108.064L243.589 108.04L243.621 48.0879L278.207 48.1039L290.201 59.5359L290.177 108.064Z" fill="#AE1624"/>
<path opacity="0.6" d="M290.177 108.064L243.589 108.04L243.621 48.0879L278.207 48.1039L290.201 59.5359L290.177 108.064Z" fill="white"/>
<path d="M278.207 48.104L290.201 59.536L278.199 59.528L278.207 48.104Z" fill="#AE1624"/>
<path opacity="0.4" d="M278.207 48.104L290.201 59.536L278.199 59.528L278.207 48.104Z" fill="white"/>
<path d="M248.16 59.6881L274.063 59.7017L274.064 58.1657L248.161 58.1521L248.16 59.6881Z" fill="#AE1624"/>
<path d="M248.154 63.5762L274.057 63.5898L274.058 62.0538L248.155 62.0402L248.154 63.5762Z" fill="#AE1624"/>
<path d="M248.148 67.4561L274.051 67.4697L274.052 65.9337L248.149 65.9201L248.148 67.4561Z" fill="#AE1624"/>
<path d="M248.15 71.3458L286.103 71.3657L286.104 69.8297L248.151 69.8098L248.15 71.3458Z" fill="#AE1624"/>
<path d="M248.152 75.2257L286.105 75.2456L286.106 73.7096L248.153 73.6897L248.152 75.2257Z" fill="#AE1624"/>
<path d="M248.146 79.1139L286.099 79.1338L286.1 77.5978L248.147 77.5779L248.146 79.1139Z" fill="#AE1624"/>
<path d="M248.14 83.0016L286.093 83.0215L286.094 81.4855L248.141 81.4656L248.14 83.0016Z" fill="#AE1624"/>
<path d="M248.142 86.8897L286.095 86.9097L286.096 85.3737L248.143 85.3537L248.142 86.8897Z" fill="#AE1624"/>
<path d="M248.144 90.7696L286.097 90.7896L286.098 89.2536L248.145 89.2336L248.144 90.7696Z" fill="#AE1624"/>
<path d="M248.138 94.6578L286.091 94.6777L286.092 93.1417L248.139 93.1218L248.138 94.6578Z" fill="#AE1624"/>
<path d="M248.132 98.5455L286.085 98.5654L286.086 97.0294L248.133 97.0095L248.132 98.5455Z" fill="#AE1624"/>
<path d="M248.134 102.434L286.087 102.454L286.088 100.918L248.135 100.898L248.134 102.434Z" fill="#AE1624"/>
<path d="M240.557 113.08H238.562V111.08H239.36V112.28H240.557V113.08Z" fill="#A6A6A6"/>
<path d="M239.4 107.936H238.602V104.792H239.4V107.936ZM239.4 101.648H238.602V98.5039H239.4V101.648ZM239.4 95.3599H238.602V92.2159H239.4V95.3599ZM239.4 89.0719H238.602V85.9279H239.4V89.0719ZM239.4 82.7839H238.602V79.6399H239.4V82.7839ZM239.4 76.4959H238.602V73.3519H239.4V76.4959ZM239.4 70.2079H238.602V67.0639H239.4V70.2079ZM239.4 63.9199H238.602V60.7759H239.4V63.9199ZM239.4 57.6319H238.602V54.4879H239.4V57.6319ZM239.4 51.3439H238.602V48.1919H239.4V51.3439Z" fill="#A6A6A6"/>
<path d="M239.384 45.0479H238.586L238.594 43.0479H240.589V43.8479H239.392L239.384 45.0479Z" fill="#A6A6A6"/>
<path d="M291.174 54.616L288.956 52.496L289.506 51.92L291.725 54.04L291.174 54.616ZM286.729 50.384L284.511 48.264L285.062 47.68L287.28 49.8L286.729 50.384ZM282.285 46.144L280.098 44.024L280.649 43.448L282.867 45.568L282.285 46.144ZM277.377 43.864H274.312V43.064H277.377V43.864ZM271.248 43.864H268.184V43.064H271.248V43.864ZM265.112 43.864H262.047V43.064H265.112V43.864ZM258.983 43.864H255.919V43.064H258.983V43.864ZM252.846 43.864H249.774V43.064H252.838L252.846 43.864ZM246.718 43.864H243.653V43.064H246.718V43.864Z" fill="#A6A6A6"/>
<path d="M295.228 59.1519H294.43V57.7199L293.401 56.7359L293.943 56.1519L295.228 57.3759V59.1519Z" fill="#A6A6A6"/>
<path d="M295.196 108.056H294.398V105H295.196V108.056ZM295.196 101.944H294.398V98.8877H295.196V101.944ZM295.196 95.8237H294.398V92.7677H295.196V95.8237ZM295.196 89.7117H294.398V86.6557H295.196V89.7117ZM295.196 83.5997H294.398V80.5437H295.196V83.5997ZM295.196 77.4877H294.398V74.4317H295.196V77.4877ZM295.196 71.3757H294.398V68.3197H295.196V71.3757ZM295.196 65.2637H294.398V62.1997H295.196V65.2637Z" fill="#A6A6A6"/>
<path d="M295.196 113.112H293.201V112.312H294.398V111.112H295.196V113.112Z" fill="#A6A6A6"/>
<path d="M290.105 113.104H287.009V112.304H290.105V113.104ZM283.912 113.104H280.816V112.304H283.912V113.104ZM277.72 113.104H274.624V112.304H277.704L277.72 113.104ZM271.519 113.104H268.423V112.304H271.519V113.104ZM265.327 113.104H262.231V112.304H265.327V113.104ZM259.135 113.104H256.038V112.304H259.135V113.104ZM252.942 113.104H249.846V112.304H252.966L252.942 113.104ZM246.75 113.104H243.653V112.304H246.75V113.104Z" fill="#A6A6A6"/>
<path d="M213.186 131.568L212.723 130.92L215.316 129.064L215.779 129.712L213.186 131.568ZM218.381 127.856L217.918 127.208L220.519 125.352L220.982 126L218.381 127.856ZM223.584 124.144L223.121 123.496L225.722 121.64L226.185 122.288L223.584 124.144ZM228.787 120.432L228.324 119.784L230.925 117.928L231.388 118.576L228.787 120.432ZM233.982 116.72L233.519 116.072L236.12 114.216L236.583 114.864L233.982 116.72Z" fill="#A6A6A6"/>
<path d="M298.391 61.465C299.455 56.923 296.645 52.3759 292.114 51.3089C287.583 50.2419 283.048 53.059 281.983 57.6011C280.919 62.1431 283.729 66.6902 288.26 67.7572C292.791 68.8242 297.326 66.0071 298.391 61.465Z" fill="#AE1624"/>
<path d="M291.063 54.3198H289.331V64.7518H291.063V54.3198Z" fill="white"/>
<path d="M295.404 60.4V58.6641H284.998V60.4H295.404Z" fill="white"/>
<path d="M299.21 120.752L302.745 129.312L299.21 130.776L295.659 122.16L289.826 126.704V102.592L306.655 119.64L299.21 120.752Z" fill="#263238"/>
<path d="M289.826 99.9601C289.677 99.5752 289.604 99.165 289.61 98.7521C289.604 98.3367 289.677 97.924 289.826 97.5361C289.974 97.924 290.047 98.3367 290.041 98.7521C290.048 99.165 289.974 99.5752 289.826 99.9601Z" fill="#263238"/>
<path d="M287.743 100.824C286.989 100.474 286.384 99.8675 286.035 99.1123C286.788 99.4626 287.393 100.069 287.743 100.824Z" fill="#263238"/>
<path d="M286.881 102.912C286.495 103.065 286.083 103.138 285.668 103.128C285.256 103.138 284.846 103.065 284.463 102.912C284.847 102.762 285.256 102.691 285.668 102.704C286.082 102.695 286.494 102.766 286.881 102.912Z" fill="#263238"/>
<path d="M287.743 105C287.575 105.38 287.336 105.725 287.041 106.016C286.751 106.311 286.411 106.549 286.035 106.72C286.198 106.34 286.437 105.997 286.737 105.712C287.023 105.412 287.365 105.17 287.743 105Z" fill="#263238"/>
<path d="M292.77 102.912C293.155 102.766 293.564 102.695 293.975 102.704C294.389 102.691 294.802 102.762 295.188 102.912C294.802 103.065 294.39 103.138 293.975 103.128C293.563 103.138 293.153 103.065 292.77 102.912Z" fill="#263238"/>
<path d="M291.908 100.824C292.079 100.448 292.317 100.106 292.611 99.8163C292.897 99.5187 293.239 99.2796 293.616 99.1123C293.449 99.4907 293.211 99.833 292.914 100.12C292.628 100.419 292.287 100.659 291.908 100.824Z" fill="#263238"/>
<path d="M112.574 48.4238H74.8204V86.2718H112.574V48.4238Z" fill="#AE1624"/>
<path d="M120.163 93.8716H81.6034V55.2236H120.163V93.8716ZM82.4014 93.0716H119.365V56.0236H82.4014V93.0716Z" fill="#AE1624"/>
<path d="M95.6163 55.7759H91.778V78.9199H95.6163V55.7759Z" fill="white"/>
<path d="M105.248 69.2718V65.4238H82.162V69.2718H105.248Z" fill="white"/>
<path d="M126.459 275.688C126.459 275.688 125.478 314.28 125.478 314.304C125.478 321.44 125.653 327.696 126.028 330.92C126.024 330.938 126.024 330.958 126.028 330.976C126.033 331.74 126.213 332.493 126.555 333.176L126.603 333.224C128.725 334.656 185.599 336.136 187.594 335.512C189.589 334.888 188.001 329.112 185.838 327.312C183.676 325.512 162.146 315.152 162.146 315.152L162.792 276.6L126.459 275.688Z" fill="#AD6359"/>
<path d="M122.174 314.52L163.327 314.912C163.327 314.912 165.665 247.712 165.84 225.312C166.04 199.712 164.596 122.976 164.596 122.976H133.825C133.825 122.976 125.573 139.888 130.289 158.928L131.59 227.4L122.174 314.52Z" fill="#37474F"/>
<path d="M160.398 270.2C160.877 259.088 161.196 247.976 161.531 236.864C162.138 214.629 162.297 192.394 162.01 170.16C161.858 157.68 161.523 145.208 161.156 132.744C161.156 132.6 161.364 132.608 161.372 132.744C162.553 155.072 162.968 177.44 163.023 199.792C163.079 222.144 162.585 244.272 161.491 266.48C160.877 278.952 160.119 291.424 158.946 303.848C158.94 303.866 158.929 303.881 158.914 303.892C158.899 303.904 158.881 303.909 158.862 303.909C158.843 303.909 158.825 303.904 158.81 303.892C158.795 303.881 158.784 303.866 158.778 303.848C159.249 292.64 159.879 281.4 160.398 270.2Z" fill="#263238"/>
<path d="M170.485 281.816C170.485 281.816 170.796 319.12 170.796 319.144C170.796 326.28 170.964 332.536 171.339 335.76C171.335 335.778 171.335 335.797 171.339 335.816C171.348 336.58 171.531 337.333 171.873 338.016L171.913 338.064C174.036 339.488 230.909 340.976 232.912 340.352C234.915 339.728 233.311 333.952 231.149 332.152C228.986 330.352 207.48 319.992 207.48 319.992L206.818 282.712L170.485 281.816Z" fill="#AD6359"/>
<path d="M151.676 162.472C151.676 162.472 168.562 215.824 168.865 225.672C169.128 234.024 168.067 319.8 168.067 319.8L210.808 320.056C210.808 320.056 207.193 232.544 206.522 223.8C205.278 207.512 191.041 162.792 180.859 123H134.782C134.782 123 135.181 143.864 144.646 158.952C144.646 158.944 148.931 160.928 151.676 162.472Z" fill="#37474F"/>
<path d="M179.678 148.12C181.202 153.224 182.487 158.392 183.851 163.536C185.216 168.68 186.596 173.936 187.953 179.096C190.586 189.128 193.196 199.184 195.135 209.368C197.153 219.596 198.296 229.977 198.55 240.4C198.782 251.024 198.55 261.656 198.486 272.28C198.423 282.904 198.327 293.64 198.143 304.28C198.143 305.608 198.087 306.936 198.04 308.28C198.04 308.408 197.848 308.4 197.84 308.28C197.561 297.656 197.712 287.016 197.744 276.392C197.776 265.768 197.92 255.136 197.832 244.512C197.789 233.964 196.879 223.438 195.111 213.04C193.323 202.816 190.81 192.736 188.208 182.696C186.724 176.968 185.234 171.24 183.739 165.512C182.247 159.752 180.651 153.992 179.334 148.184C179.326 148.138 179.336 148.091 179.362 148.053C179.388 148.015 179.429 147.988 179.474 147.98C179.52 147.972 179.567 147.981 179.605 148.008C179.643 148.034 179.669 148.074 179.678 148.12Z" fill="#263238"/>
<path d="M162.249 163.504C160.109 163.49 157.974 163.298 155.865 162.928C153.79 162.462 151.739 161.89 149.721 161.216C147.733 160.76 145.718 160.431 143.688 160.232C141.644 159.935 139.655 159.339 137.783 158.464C137.766 158.461 137.748 158.463 137.732 158.47C137.717 158.477 137.704 158.49 137.696 158.505C137.687 158.52 137.685 158.538 137.687 158.555C137.69 158.572 137.698 158.588 137.711 158.6C139.524 159.579 141.417 160.404 143.369 161.064C145.396 161.704 147.518 161.792 149.569 162.296C151.646 162.915 153.759 163.402 155.897 163.752C158.006 164.014 160.142 163.979 162.241 163.648C162.353 163.632 162.329 163.504 162.249 163.504Z" fill="#263238"/>
<path d="M164.947 205.944C164.54 204.344 164.149 202.744 163.734 201.2C162.864 198 161.986 194.8 161.028 191.672C159.121 185.4 157.318 179.088 155.299 172.848C154.158 169.304 153.128 165.72 151.788 162.256C151.78 162.241 151.767 162.229 151.752 162.222C151.737 162.215 151.719 162.214 151.703 162.219C151.687 162.224 151.673 162.234 151.664 162.248C151.654 162.262 151.65 162.279 151.652 162.296C152.322 165.496 153.248 168.696 154.134 171.896C155.019 175.096 155.905 178.256 156.823 181.424C158.65 187.728 160.43 194.04 162.409 200.296C162.968 202.048 163.534 203.792 164.141 205.536C164.747 207.28 165.242 209.144 165.984 210.872C165.992 210.89 166.006 210.905 166.024 210.914C166.042 210.922 166.063 210.923 166.082 210.917C166.101 210.911 166.117 210.898 166.127 210.881C166.137 210.864 166.14 210.843 166.136 210.824C165.864 209.168 165.362 207.56 164.947 205.944Z" fill="#263238"/>
<path d="M171.722 72.7361C168.665 73.3281 163.008 68.0561 161.108 64.2081C160.981 63.9441 161.483 61.2401 161.946 57.9281C162.218 55.9121 162.473 53.6721 162.561 51.6001L175.329 55.2881C174.477 57.8422 173.941 60.4913 173.733 63.1761C173.722 63.4599 173.741 63.7441 173.789 64.0241C173.789 64.0241 173.789 64.1121 173.789 64.1681C174.044 65.7921 174.682 72.1601 171.722 72.7361Z" fill="#AD6359"/>
<path d="M173.836 64.0238C173.836 64.0238 173.836 64.1198 173.836 64.1678C173.393 64.2044 172.947 64.2044 172.504 64.1678C164.907 63.5438 163.271 54.9198 162.928 51.6958L175.361 55.2798C174.508 57.8309 173.972 60.4775 173.765 63.1598C173.762 63.4494 173.787 63.7386 173.836 64.0238Z" fill="#263238"/>
<path d="M160.318 35.744C158.666 40.256 160.318 53.664 163.438 56.8C167.923 61.352 175.64 62.2 179.59 56.704C183.42 51.384 180.923 33.96 177.427 31.104C172.288 26.808 162.792 29.072 160.318 35.744Z" fill="#AD6359"/>
<path d="M173.286 44.5039C173.286 44.5039 173.214 44.5519 173.222 44.5919C173.35 45.4879 173.342 46.5439 172.552 46.9359C172.552 46.9359 172.552 46.9919 172.552 46.9839C173.549 46.7359 173.549 45.3359 173.286 44.5039Z" fill="#263238"/>
<path d="M172.368 43.6479C170.908 43.6479 171.107 46.6239 172.456 46.5759C173.804 46.5279 173.605 43.6079 172.368 43.6479Z" fill="#263238"/>
<path d="M178.369 44.1438C178.369 44.1038 178.441 44.1438 178.441 44.2158C178.441 45.1278 178.664 46.1598 179.502 46.4078V46.4638C178.497 46.3838 178.257 45.0078 178.369 44.1438Z" fill="#263238"/>
<path d="M179.111 43.1361C180.563 42.9281 180.875 45.8481 179.534 46.0481C178.193 46.2481 177.898 43.3121 179.111 43.1361Z" fill="#263238"/>
<path d="M171.131 42.3841C171.509 42.244 171.879 42.0838 172.24 41.9041C172.651 41.7926 173.013 41.5478 173.27 41.2081C173.33 41.0846 173.347 40.9448 173.32 40.8103C173.292 40.6758 173.222 40.5541 173.118 40.4641C172.887 40.3162 172.621 40.233 172.348 40.2232C172.074 40.2133 171.803 40.2772 171.562 40.4081C171.035 40.5984 170.598 40.9774 170.333 41.4721C170.28 41.5887 170.261 41.7183 170.279 41.8454C170.298 41.9724 170.352 42.0914 170.437 42.1878C170.521 42.2843 170.632 42.3542 170.755 42.3891C170.878 42.4239 171.009 42.4222 171.131 42.3841Z" fill="#263238"/>
<path d="M180.141 41.5841C179.743 41.5334 179.348 41.4586 178.959 41.3601C178.531 41.3425 178.121 41.182 177.794 40.9041C177.712 40.7945 177.668 40.6612 177.668 40.5241C177.668 40.387 177.712 40.2536 177.794 40.1441C177.989 39.9509 178.231 39.8129 178.496 39.744C178.761 39.6751 179.039 39.6779 179.303 39.7521C179.864 39.8292 180.377 40.1147 180.739 40.5521C180.808 40.6555 180.847 40.7762 180.851 40.9006C180.855 41.025 180.824 41.148 180.761 41.2556C180.699 41.3632 180.608 41.451 180.498 41.5091C180.388 41.5672 180.264 41.5932 180.141 41.5841Z" fill="#263238"/>
<path d="M173.653 50.0319C173.905 50.3767 174.226 50.665 174.596 50.8784C174.965 51.0919 175.375 51.2259 175.799 51.2719C176.17 51.3239 176.546 51.3239 176.917 51.2719H177.124L177.324 51.2239C177.371 51.2115 177.414 51.1836 177.444 51.1445C177.474 51.1055 177.491 51.0574 177.491 51.0079C177.491 51.0079 177.491 50.9519 177.491 50.9199V50.8399C177.491 50.1439 177.324 49.0799 177.324 49.0799C177.587 49.1919 178.92 49.6879 178.88 49.3279C178.585 46.1833 177.972 43.0767 177.052 40.0559C177.047 40.038 177.036 40.0224 177.02 40.0112C177.005 40.0001 176.987 39.9941 176.968 39.9941C176.95 39.9941 176.932 40.0001 176.916 40.0112C176.901 40.0224 176.89 40.038 176.885 40.0559C177.14 42.9679 177.906 45.8079 178.209 48.7279C177.734 48.541 177.234 48.4251 176.725 48.3839C176.629 48.3839 177.028 50.4239 177.02 50.7359C176.452 50.8297 175.87 50.8072 175.311 50.6697C174.751 50.5322 174.225 50.2826 173.764 49.9359C173.661 49.9039 173.589 49.9679 173.653 50.0319Z" fill="#263238"/>
<path d="M176.478 50.9198C176.13 51.4467 175.651 51.874 175.089 52.1598C174.78 52.3032 174.435 52.3479 174.1 52.2878C173.366 52.1438 173.302 51.4878 173.389 50.9038C173.445 50.5955 173.536 50.2948 173.661 50.0078C174.478 50.6065 175.466 50.9262 176.478 50.9198Z" fill="#263238"/>
<path d="M175.089 52.1601C174.78 52.3035 174.435 52.3482 174.1 52.2881C173.366 52.1441 173.302 51.4881 173.389 50.9041C173.773 50.8892 174.15 51.0054 174.459 51.2336C174.768 51.4618 174.99 51.7885 175.089 52.1601Z" fill="#FF97B8"/>
<path opacity="0.2" d="M163.167 31.7197C163.311 33.5117 163.622 39.0797 162.912 40.3197C162.202 41.5597 160.749 44.4077 159.879 44.9437C159.512 41.2477 159.616 37.6717 160.326 35.7437C160.902 34.1742 161.882 32.7856 163.167 31.7197Z" fill="#263238"/>
<path d="M174.531 35.416C174.096 36.0355 173.511 36.5335 172.831 36.8626C172.151 37.1916 171.398 37.3408 170.644 37.296C169.871 37.2484 169.124 37.0027 168.473 36.5825C167.821 36.1623 167.289 35.5816 166.926 34.896C166.926 34.896 166.838 34.896 166.862 34.896C167.184 35.6445 167.703 36.2909 168.364 36.7659C169.025 37.2408 169.802 37.5264 170.612 37.592C171.409 37.6092 172.196 37.4175 172.896 37.0358C173.596 36.6541 174.184 36.0957 174.602 35.416C174.658 35.416 174.57 35.352 174.531 35.416Z" fill="#263238"/>
<path d="M168.937 24.9279C167.774 25.0414 166.658 25.4459 165.692 26.1042C164.725 26.7626 163.94 27.6538 163.406 28.6959C162.978 29.7372 162.913 30.8931 163.223 31.9759C163.223 32.0239 163.327 31.9759 163.319 31.9759C163.174 31.005 163.292 30.0129 163.662 29.1036C164.031 28.1943 164.637 27.4014 165.417 26.8079C166.269 26.1215 167.268 25.6427 168.336 25.4095C169.404 25.1763 170.511 25.1949 171.57 25.4639C172.596 25.7062 173.503 26.3041 174.132 27.1519C174.187 27.2399 174.371 27.1519 174.323 27.0719C173.453 25.5359 171.251 24.6559 168.937 24.9279Z" fill="#263238"/>
<path d="M184.338 29.0799C183.799 27.8556 182.847 26.8611 181.649 26.2719C179.989 25.4719 178.225 25.7519 176.486 26.1039C176.438 26.1039 176.486 26.1839 176.486 26.1759C177.944 25.7695 179.488 25.7973 180.93 26.2559C182.124 26.7285 183.119 27.5986 183.747 28.7199C184.357 29.8754 184.531 31.2122 184.238 32.4859C183.945 33.7596 183.204 34.8849 182.151 35.6559C181.533 36.0828 180.833 36.3783 180.096 36.5241C179.359 36.6699 178.6 36.6631 177.866 36.5039C177.81 36.5039 177.77 36.5759 177.866 36.5919C179.191 36.9221 180.591 36.7545 181.801 36.1207C183.011 35.4869 183.947 34.4308 184.434 33.1519C184.906 31.8295 184.872 30.3785 184.338 29.0799Z" fill="#263238"/>
<path d="M159.6 38.4238C159.6 38.4238 156.759 34.0558 158.555 31.2238C159.568 29.6238 163.407 29.4638 163.407 29.4638C163.849 28.6614 164.445 27.9548 165.162 27.3849C165.878 26.815 166.7 26.3932 167.58 26.1438C170.716 25.1278 174.682 26.6558 174.682 26.6558C174.682 26.6558 177.555 24.6478 180.548 26.0158C184.713 27.9358 184.753 34.0158 180.939 36.3358C178.257 37.9358 174.235 35.8078 174.235 35.8078C173.876 35.8878 170.333 38.4878 167.197 35.3918C167.197 35.3918 165.082 37.6478 162.888 36.3918C162.616 37.0291 162.154 37.5665 161.565 37.9303C160.977 38.2941 160.29 38.4665 159.6 38.4238Z" fill="#263238"/>
<path d="M171.889 49.4799C171.198 49.4078 170.54 49.1427 169.991 48.7147C169.442 48.2867 169.024 47.713 168.784 47.0586C168.544 46.4043 168.492 45.6956 168.633 45.0131C168.775 44.3305 169.104 43.7014 169.585 43.1973C170.065 42.6931 170.677 42.334 171.35 42.1608C172.024 41.9876 172.732 42.0073 173.395 42.2175C174.058 42.4277 174.649 42.8202 175.101 43.3502C175.553 43.8802 175.847 44.5266 175.951 45.2159C176.024 45.7013 176 46.1963 175.881 46.6725C175.763 47.1487 175.552 47.5968 175.261 47.9913C174.97 48.3858 174.604 48.7189 174.184 48.9716C173.764 49.2243 173.299 49.3916 172.815 49.4639C172.508 49.5053 172.197 49.5106 171.889 49.4799ZM172.591 42.5519C172.327 42.5168 172.058 42.5168 171.793 42.5519C170.988 42.6537 170.251 43.0594 169.734 43.6865C169.216 44.3135 168.956 45.1148 169.007 45.9272C169.058 46.7396 169.415 47.5021 170.007 48.0594C170.599 48.6166 171.381 48.9268 172.192 48.9268C173.004 48.9268 173.786 48.6166 174.378 48.0594C174.97 47.5021 175.327 46.7396 175.378 45.9272C175.429 45.1148 175.169 44.3135 174.651 43.6865C174.134 43.0594 173.397 42.6537 172.591 42.5519Z" fill="#AE1624"/>
<path d="M180.436 49.3041C179.015 49.1601 177.874 47.5761 177.842 45.6241C177.814 44.6925 178.076 43.7753 178.592 43.0001C178.804 42.6647 179.092 42.385 179.434 42.1845C179.776 41.9841 180.16 41.8687 180.555 41.8481C180.953 41.8535 181.343 41.9562 181.693 42.1472C182.042 42.3382 182.339 42.6118 182.558 42.9441C183.088 43.7033 183.367 44.6098 183.356 45.5361C183.356 47.5921 182.167 49.2881 180.643 49.3121L180.436 49.3041ZM180.755 42.3601C180.691 42.3524 180.627 42.3524 180.563 42.3601C180.242 42.3741 179.928 42.4667 179.65 42.6298C179.372 42.7929 179.137 43.0217 178.967 43.2961C178.511 43.9838 178.282 44.7985 178.313 45.6241C178.313 47.4081 179.374 48.8241 180.635 48.8241C181.896 48.8241 182.886 47.3361 182.862 45.5521C182.86 44.7266 182.604 43.9218 182.128 43.2481C181.972 43.0131 181.77 42.8128 181.534 42.66C181.298 42.5072 181.033 42.4051 180.755 42.3601Z" fill="#AE1624"/>
<path d="M175.831 45.6559L175.504 45.2719C176.063 44.7919 177.356 44.1279 178.281 45.0879L177.922 45.4399C177.092 44.5999 175.879 45.6079 175.831 45.6559Z" fill="#AE1624"/>
<path d="M159.257 46.8797L158.818 46.6557C158.922 46.4477 159.855 44.6157 160.965 44.4157C162.074 44.2157 168.681 44.7517 168.945 44.7757V45.2717C167.029 45.1197 161.866 44.7597 161.068 44.9037C160.27 45.0477 159.512 46.3757 159.257 46.8797Z" fill="#AE1624"/>
<path d="M162.545 46.7119C162.545 46.7119 159.704 42.3119 157.757 43.3119C155.809 44.3119 157.804 50.6239 160.055 51.5519C160.335 51.6924 160.64 51.7745 160.953 51.7932C161.266 51.8118 161.579 51.7667 161.873 51.6605C162.168 51.5543 162.438 51.3892 162.667 51.1753C162.897 50.9614 163.08 50.703 163.207 50.4159L162.545 46.7119Z" fill="#AD6359"/>
<path d="M158.347 45.1118C158.347 45.1118 158.307 45.1118 158.347 45.1678C159.943 45.8718 160.741 47.3918 161.252 48.9598C161.165 48.7955 161.043 48.652 160.895 48.5394C160.747 48.4267 160.577 48.3475 160.396 48.3072C160.215 48.2669 160.027 48.2665 159.845 48.306C159.664 48.3454 159.493 48.4238 159.345 48.5358C159.345 48.5358 159.345 48.6318 159.385 48.6238C159.67 48.5439 159.973 48.5549 160.252 48.6552C160.53 48.7555 160.771 48.9402 160.941 49.1838C161.227 49.5869 161.465 50.0218 161.651 50.4798C161.723 50.6238 161.978 50.5598 161.93 50.3918C161.994 48.3118 160.534 45.3998 158.347 45.1118Z" fill="#263238"/>
<path d="M126.938 131.936C127.058 132.104 186.181 137.992 186.788 137.432C187.586 136.632 184.609 77.2799 174.156 65.0639C171.586 62.0559 162.441 58.3839 159.401 60.2639C151.508 65.0639 146.577 75.9359 143.441 82.2719C141.102 86.9679 138.07 95.0719 135.261 103.376C130.585 117.04 126.499 131.328 126.938 131.936Z" fill="#AE1624"/>
<path opacity="0.1" d="M162.569 83.0799C162.277 83.896 162.105 84.7502 162.058 85.6159C162.549 84.9065 162.931 84.1271 163.191 83.3039C163.478 82.4865 163.65 81.6329 163.702 80.7679C163.211 81.4774 162.829 82.2567 162.569 83.0799ZM138.629 98.2159C138.348 99.0321 138.179 99.8824 138.126 100.744C138.617 100.037 138.999 99.2606 139.259 98.4399C139.552 97.6244 139.721 96.7696 139.762 95.9039C139.281 96.6138 138.9 97.3863 138.629 98.1999V98.2159ZM172.871 133.416C172.584 134.23 172.415 135.082 172.368 135.944C172.86 135.234 173.244 134.455 173.509 133.632C173.787 132.815 173.956 131.965 174.012 131.104C173.522 131.809 173.137 132.583 172.871 133.4V133.416ZM143.345 133.56V133.672L144.023 133.728C144.304 132.929 144.468 132.094 144.51 131.248C144.012 131.954 143.622 132.731 143.353 133.552L143.345 133.56ZM127.975 128.6C127.694 129.416 127.522 130.266 127.465 131.128C127.963 130.419 128.348 129.636 128.606 128.808C128.9 127.996 129.069 127.143 129.108 126.28C128.63 126.999 128.249 127.78 127.975 128.6ZM158.347 113.856C158.062 114.671 157.89 115.522 157.836 116.384C158.333 115.677 158.718 114.897 158.978 114.072C159.261 113.257 159.43 112.406 159.48 111.544C158.994 112.256 158.612 113.035 158.347 113.856ZM149.833 72.3839C149.539 73.1963 149.369 74.0486 149.33 74.9119C149.811 74.1948 150.189 73.414 150.455 72.5919C150.749 71.7819 150.921 70.9326 150.966 70.0719C150.479 70.7841 150.098 71.5628 149.833 72.3839ZM181.074 83.2799C180.267 82.9818 179.42 82.8091 178.561 82.7679C179.27 83.2596 180.047 83.6449 180.867 83.9119C181.01 83.9119 181.146 83.9999 181.29 84.0319C181.194 83.7999 181.146 83.5199 181.074 83.2799ZM141.972 116.256C141.16 115.966 140.311 115.794 139.451 115.744C140.159 116.239 140.94 116.622 141.765 116.88C142.573 117.174 143.42 117.347 144.278 117.392C143.591 116.909 142.839 116.526 142.044 116.256H141.972ZM186.732 134.584C185.921 134.291 185.071 134.122 184.21 134.08C184.924 134.568 185.703 134.95 186.525 135.216L186.892 135.328C186.892 135.112 186.892 134.888 186.892 134.648L186.732 134.584ZM164.867 125.68C164.053 125.39 163.2 125.22 162.337 125.176C163.051 125.661 163.83 126.041 164.651 126.304C165.464 126.601 166.317 126.773 167.181 126.816C166.466 126.331 165.687 125.949 164.867 125.68ZM181.066 107.92C180.256 107.636 179.41 107.466 178.553 107.416C179.262 107.905 180.039 108.288 180.859 108.552C181.671 108.84 182.52 109.013 183.38 109.064C182.668 108.574 181.888 108.188 181.066 107.92ZM157.262 94.3199C156.451 94.0274 155.601 93.8575 154.74 93.8159C155.453 94.3028 156.232 94.6827 157.054 94.9439C157.864 95.2413 158.715 95.4139 159.576 95.4559C158.863 94.9683 158.084 94.5857 157.262 94.3199ZM136.873 126.744C136.502 125.966 136.024 125.244 135.453 124.6C135.598 125.448 135.867 126.27 136.251 127.04C136.618 127.82 137.097 128.542 137.671 129.184C137.52 128.337 137.251 127.516 136.873 126.744ZM162.409 65.2719C162.04 64.4908 161.559 63.7684 160.981 63.1279C161.328 64.8236 162.102 66.4018 163.231 67.7119C163.078 66.8636 162.804 66.0418 162.417 65.2719H162.409ZM174.618 93.2239C174.249 92.4453 173.771 91.7234 173.198 91.0799C173.539 92.7793 174.318 94.3596 175.456 95.6639C175.297 94.8152 175.017 93.9935 174.626 93.2239H174.618ZM157.685 133.792C157.316 133.013 156.838 132.291 156.264 131.648C156.414 132.498 156.682 133.322 157.062 134.096C157.23 134.416 157.406 134.744 157.605 135.056L158.204 135.112C158.062 134.66 157.889 134.219 157.685 133.792ZM172.193 116.192C171.822 115.414 171.344 114.692 170.772 114.048C170.923 114.882 171.191 115.69 171.57 116.448C171.943 117.227 172.421 117.952 172.991 118.6C172.835 117.777 172.567 116.98 172.193 116.232V116.192ZM149.418 105.4C149.045 104.619 148.564 103.894 147.989 103.248C148.326 104.953 149.108 106.537 150.255 107.84C150.09 106.992 149.808 106.171 149.418 105.4ZM132.987 110.128C132.899 110.416 132.803 110.696 132.715 110.984L132.947 110.88C133.723 110.509 134.444 110.03 135.086 109.456C134.359 109.578 133.653 109.798 132.987 110.112V110.128ZM150.822 123.312C150.041 123.683 149.316 124.163 148.667 124.736C150.365 124.399 151.945 123.621 153.248 122.48C152.403 122.637 151.586 122.917 150.822 123.312ZM146.545 86.8239C145.772 87.1975 145.055 87.6768 144.414 88.2479C145.262 88.0986 146.084 87.8292 146.856 87.4479C147.632 87.0697 148.352 86.585 148.995 86.0079C148.153 86.1672 147.336 86.4418 146.569 86.8239H146.545ZM180.3 125.144C179.522 125.515 178.799 125.995 178.154 126.568C179 126.422 179.82 126.152 180.587 125.768C181.367 125.403 182.088 124.923 182.726 124.344C181.899 124.493 181.098 124.763 180.348 125.144H180.3ZM168.019 103.368C167.242 103.742 166.52 104.221 165.872 104.792C166.717 104.643 167.537 104.373 168.306 103.992C169.086 103.623 169.807 103.141 170.445 102.56C169.611 102.717 168.802 102.989 168.043 103.368H168.019ZM174.251 71.7999C173.477 72.1754 172.758 72.6544 172.113 73.2239C173.812 72.8852 175.394 72.1076 176.701 70.9679C175.848 71.1225 175.022 71.4028 174.251 71.7999Z" fill="black"/>
<path d="M169.814 76.7278C178.465 89.7278 195.781 113.216 206.842 113.992C218.572 114.792 234.014 101.992 240.653 97.9918C243.462 96.3118 227.598 78.3678 224.246 79.3918C220.894 80.4158 210.832 89.0318 208.23 89.3198C205.629 89.6078 189.286 75.1518 177.954 67.5358C164.667 58.5758 162.792 66.1998 169.814 76.7278Z" fill="#AD6359"/>
<path d="M255.639 63.208C257.116 65.896 250.205 68.976 250.205 68.976C251.518 69.0855 252.751 69.6514 253.692 70.576C255.288 72.288 253.277 75.512 253.277 75.512C254.615 75.913 255.802 76.7072 256.685 77.7921C258.025 79.5841 256.485 83.128 256.485 83.128C257.512 84.1749 258.127 85.5585 258.217 87.024C258.305 90.952 253.309 94.2241 250.157 96.3681C247.005 98.5121 235.067 101.4 233.016 102.2L220.248 82.2C220.248 82.2 231.691 68.6 235.761 66.664C239.193 64.976 253.389 59.104 255.639 63.208Z" fill="#AD6359"/>
<path d="M250.109 68.9281C246.047 69.8161 242.201 71.6801 238.514 73.5201C238.499 73.5297 238.489 73.5445 238.484 73.5616C238.479 73.5787 238.481 73.5969 238.489 73.6127C238.497 73.6286 238.51 73.6409 238.527 73.6475C238.543 73.654 238.561 73.6542 238.578 73.6481C242.225 71.7761 246.462 70.8401 250.173 69.1121C250.277 69.0721 250.221 68.9041 250.109 68.9281Z" fill="#263238"/>
<path d="M253.038 75.3039C252.132 75.5892 251.27 75.9984 250.476 76.5199C249.598 77.0079 248.729 77.5199 247.867 78.0399C246.151 79.0799 244.451 80.1679 242.784 81.2959C242.712 81.3519 242.784 81.4719 242.855 81.4239C244.571 80.3919 246.303 79.3759 248.058 78.4159C248.936 77.9279 249.822 77.4559 250.716 76.9839C251.581 76.5982 252.401 76.1151 253.158 75.5439C253.184 75.525 253.202 75.4974 253.21 75.4661C253.217 75.4348 253.214 75.4018 253.199 75.373C253.185 75.3442 253.161 75.3215 253.131 75.3088C253.102 75.2961 253.069 75.2944 253.038 75.3039Z" fill="#263238"/>
<path d="M256.413 83.1759C255.6 83.4511 254.839 83.8622 254.163 84.3919C253.365 84.8879 252.615 85.3759 251.833 85.8559C250.277 86.8239 248.713 87.7919 247.125 88.7039C247.11 88.7136 247.099 88.7283 247.094 88.7454C247.09 88.7625 247.092 88.7807 247.099 88.7965C247.107 88.8124 247.121 88.8248 247.137 88.8313C247.154 88.8378 247.172 88.838 247.189 88.8319C248.785 87.9119 250.444 87.0159 252.056 86.0799C252.854 85.6239 253.652 85.1679 254.45 84.6959C255.209 84.3425 255.899 83.8547 256.485 83.2559C256.496 83.2464 256.502 83.233 256.503 83.2188C256.504 83.2045 256.499 83.1905 256.489 83.1799C256.48 83.1693 256.466 83.1629 256.452 83.1622C256.438 83.1614 256.424 83.1664 256.413 83.1759Z" fill="#263238"/>
<path d="M219.227 81.5438L235.139 105.4C235.139 105.4 214.391 118.52 203.027 114.432C191.664 110.344 173.828 86.0318 167.915 74.9198C162.002 63.8078 166.95 59.4558 177.491 66.6958C188.033 73.9358 206.77 87.9998 207.504 88.2958C208.238 88.5918 219.227 81.5438 219.227 81.5438Z" fill="#AE1624"/>
<path opacity="0.1" d="M174.251 71.7998C173.477 72.1752 172.758 72.6542 172.113 73.2238C173.812 72.8851 175.394 72.1074 176.701 70.9678C175.848 71.1223 175.022 71.4027 174.251 71.7998ZM208.964 104.6C208.184 104.968 207.461 105.448 206.818 106.024C208.516 105.684 210.095 104.904 211.398 103.76C210.55 103.917 209.73 104.2 208.964 104.6ZM220.807 83.8958C220.477 84.0192 220.155 84.1608 219.841 84.3198C219.058 84.6881 218.333 85.1677 217.686 85.7438C218.537 85.5957 219.362 85.3263 220.136 84.9438C220.471 84.7678 220.799 84.5838 221.118 84.3758L220.807 83.8958ZM195.103 87.5198C194.734 86.7387 194.255 86.0141 193.683 85.3678C194.023 87.0682 194.798 88.6506 195.933 89.9598C195.776 89.1179 195.497 88.3038 195.103 87.5438V87.5198ZM201.926 113.12C201.551 112.344 201.074 111.623 200.506 110.976C200.655 111.823 200.923 112.645 201.304 113.416L201.487 113.76C201.774 113.896 202.062 114.024 202.333 114.136C202.229 113.808 202.078 113.48 201.894 113.144L201.926 113.12ZM218.732 96.3198C218.358 95.5415 217.877 94.8197 217.303 94.1758C217.453 95.023 217.721 95.8445 218.101 96.6158C218.475 97.3922 218.953 98.1135 219.522 98.7598C219.377 97.9127 219.111 97.0909 218.732 96.3198ZM195.757 101.464C194.945 101.177 194.096 101.007 193.236 100.96C193.951 101.444 194.73 101.827 195.55 102.096C196.366 102.381 197.217 102.553 198.08 102.608C197.364 102.117 196.582 101.732 195.757 101.464ZM232.92 102.056C232.553 101.88 232.17 101.736 231.787 101.592C230.975 101.303 230.126 101.136 229.265 101.096C229.983 101.574 230.761 101.954 231.58 102.224C232.149 102.42 232.733 102.567 233.327 102.664L232.92 102.056ZM181.05 83.2638C180.243 82.9656 179.396 82.793 178.537 82.7518C179.246 83.2434 180.023 83.6288 180.843 83.8958C181.656 84.1787 182.505 84.3457 183.364 84.3918C182.648 83.9024 181.862 83.5223 181.034 83.2638H181.05ZM185.838 96.5838C185.555 97.3988 185.389 98.2499 185.344 99.1118C186.279 97.6765 186.829 96.023 186.94 94.3118C186.471 95.0199 186.103 95.79 185.846 96.5998L185.838 96.5838ZM207.727 93.3838C207.435 94.1998 207.263 95.0541 207.217 95.9198C207.707 95.2088 208.092 94.4299 208.358 93.6078C208.644 92.7903 208.813 91.9366 208.861 91.0718C208.371 91.7866 207.992 92.5715 207.735 93.3998L207.727 93.3838ZM218.556 109.336C218.278 110.153 218.106 111.003 218.046 111.864C218.544 111.157 218.929 110.377 219.187 109.552C219.481 108.739 219.65 107.887 219.689 107.024C219.216 107.745 218.838 108.525 218.564 109.344L218.556 109.336Z" fill="black"/>
<path d="M221.78 95.9441C220.703 94.2161 219.578 92.5121 218.46 90.8081C217.918 90.0081 217.391 89.2081 216.825 88.4081C216.258 87.6081 215.667 86.6161 214.997 85.8001C214.989 85.7874 214.976 85.7785 214.961 85.7755C214.946 85.7725 214.93 85.7756 214.917 85.7841C214.905 85.7926 214.896 85.8058 214.893 85.8208C214.89 85.8358 214.893 85.8514 214.901 85.8641C215.348 86.8161 215.947 87.7201 216.457 88.6401C216.968 89.5601 217.439 90.3281 217.942 91.1681C218.995 92.9201 220.041 94.6641 221.134 96.3841C223.312 99.8401 225.587 103.216 227.901 106.576C227.906 106.585 227.913 106.592 227.921 106.598C227.929 106.603 227.938 106.607 227.948 106.61C227.957 106.612 227.967 106.612 227.977 106.611C227.987 106.609 227.996 106.605 228.005 106.6C228.013 106.595 228.02 106.588 228.026 106.58C228.032 106.572 228.036 106.563 228.038 106.553C228.04 106.543 228.041 106.533 228.039 106.524C228.037 106.514 228.034 106.505 228.028 106.496C226.002 102.912 223.943 99.4001 221.78 95.9441Z" fill="#263238"/>
<path d="M183.652 97.5358C182.167 95.5678 176.565 87.6158 175.552 86.1278C173.509 83.1358 171.498 80.1118 169.455 77.1118C169.455 77.1118 169.383 77.1118 169.399 77.1118C170.389 79.0558 171.466 80.9518 172.591 82.8078L172.288 82.4638C171.666 81.7758 171.011 81.1118 170.357 80.4478C170.317 80.4478 170.253 80.4478 170.285 80.5118C170.884 81.2478 171.474 81.9998 172.105 82.7118C172.504 83.1678 172.903 83.5918 173.342 84.0318C173.844 84.8318 174.371 85.6318 174.898 86.4318C175.927 87.9518 181.481 95.9198 183.516 97.6318C183.604 97.6878 183.708 97.6078 183.652 97.5358Z" fill="#263238"/>
<path d="M170.772 62.544C166.367 59.304 153.439 56.312 147.63 59.104C140.336 62.632 130.513 87.704 133.011 89.632C137.471 93.064 156.392 80.384 160.941 74.712C165.489 69.04 170.772 62.544 170.772 62.544Z" fill="#AE1624"/>
<path opacity="0.1" d="M151.62 58.0961C151.252 58.3323 150.905 58.5999 150.583 58.8961C151.415 58.7464 152.221 58.477 152.977 58.0961C153.013 58.0835 153.047 58.0674 153.08 58.0481C152.602 58.0081 152.091 58.0481 151.62 58.0961ZM143.105 64.8641C142.954 64.5841 142.81 64.3041 142.642 64.0641C142.515 64.2401 142.395 64.4321 142.251 64.6241C142.331 64.8081 142.419 65.0001 142.507 65.1841C142.879 65.961 143.357 66.6826 143.927 67.3281C143.772 66.4707 143.492 65.6406 143.097 64.8641H143.105ZM162.425 65.2721C162.056 64.491 161.575 63.7686 160.996 63.1281C161.344 64.8238 162.118 66.402 163.247 67.7121C163.089 66.8629 162.809 66.0411 162.417 65.2721H162.425ZM138.134 78.6961C137.318 78.4123 136.466 78.2453 135.604 78.2001C136.316 78.6846 137.093 79.067 137.91 79.3361C138.725 79.6248 139.577 79.7945 140.44 79.8401C139.727 79.3547 138.951 78.9698 138.134 78.6961ZM149.832 72.3841C149.538 73.1965 149.369 74.0488 149.33 74.9121C149.811 74.195 150.189 73.4141 150.455 72.5921C150.749 71.7821 150.921 70.9328 150.966 70.0721C150.479 70.7843 150.098 71.563 149.832 72.3841Z" fill="black"/>
<path d="M166.247 69.8237C165.266 70.6237 164.252 71.3517 163.279 72.1517C164.659 70.5517 166.056 68.8877 167.389 67.2077C167.436 67.1517 167.389 67.0717 167.293 67.1197C165.546 68.7732 163.884 70.5141 162.313 72.3357C160.653 74.1437 158.986 75.9437 157.23 77.6637C155.505 79.3986 153.654 81.003 151.692 82.4637C149.589 83.9555 147.381 85.2924 145.084 86.4637C143.792 87.1357 142.486 87.7784 141.166 88.3917C139.752 89.037 138.29 89.5719 136.793 89.9917C136.514 90.0637 136.682 90.1677 136.793 90.1517C138.062 89.8743 139.304 89.4834 140.504 88.9837C141.749 88.4797 143.002 87.9837 144.239 87.4637C146.63 86.5046 148.936 85.3459 151.133 83.9997C155.403 81.2957 158.762 77.5997 161.954 73.7277L162.138 73.5037C162.72 73.0237 163.295 72.5357 163.853 72.0237C164.651 71.2877 165.489 70.5917 166.359 69.9277C166.415 69.8797 166.319 69.7597 166.247 69.8237Z" fill="#263238"/>
</svg>
